<svg width="281" height="117" viewBox="0 0 281 117" fill="none" xmlns="http://www.w3.org/2000/svg">
<g filter="url(#filter0_f_2188_10)">
<ellipse cx="140.5" cy="74" rx="116.5" ry="19" fill="#3A86D5"/>
</g>
<rect x="11.5" y="0.5" width="258" height="73" rx="11.5" fill="#88C2FF" stroke="white"/>
<path d="M97.1474 49.3911C95.3222 49.3911 93.5444 49.1185 91.814 48.5733C90.1074 48.0044 88.7444 47.2815 87.7251 46.4044L89.3607 42.6356C90.3562 43.4415 91.5533 44.0933 92.9518 44.5911C94.3503 45.0889 95.7607 45.3378 97.1829 45.3378C98.8659 45.3378 100.11 45.0533 100.916 44.4844C101.746 43.9156 102.161 43.1689 102.161 42.2444C102.161 41.5333 101.924 40.9644 101.45 40.5378C100.976 40.1111 100.383 39.7793 99.6718 39.5422C98.9844 39.2815 97.9888 38.9852 96.6851 38.6533C94.9074 38.2267 93.4496 37.7881 92.3118 37.3378C91.1977 36.8637 90.2377 36.1407 89.4318 35.1689C88.6259 34.197 88.2229 32.8933 88.2229 31.2578C88.2229 29.8593 88.5785 28.5911 89.2896 27.4533C90.0244 26.3156 91.1148 25.4148 92.5607 24.7511C94.0066 24.0637 95.7725 23.72 97.8585 23.72C99.3518 23.72 100.798 23.9215 102.196 24.3244C103.618 24.7037 104.851 25.2489 105.894 25.96L104.401 29.7644C103.358 29.1007 102.267 28.603 101.13 28.2711C100.016 27.9393 98.9251 27.7733 97.8585 27.7733C96.1992 27.7733 94.9666 28.0815 94.1607 28.6978C93.3548 29.2904 92.9518 30.0607 92.9518 31.0089C92.9518 31.6963 93.1888 32.2652 93.6629 32.7156C94.137 33.1422 94.7414 33.4859 95.4763 33.7467C96.2111 33.9837 97.2066 34.2563 98.4629 34.5644C100.288 35.0148 101.746 35.4652 102.836 35.9156C103.95 36.3659 104.91 37.077 105.716 38.0489C106.522 38.997 106.925 40.277 106.925 41.8889C106.925 43.2637 106.558 44.52 105.823 45.6578C105.088 46.7956 103.986 47.7081 102.516 48.3956C101.047 49.0593 99.257 49.3911 97.1474 49.3911ZM107.078 28.2356V24.1111H127.309V28.2356H119.593V49H114.829V28.2356H107.078ZM131.869 43.3467L129.593 49H124.687L135.318 24.1111H140.011L150.678 49H145.664L143.389 43.3467H131.869ZM137.664 29.0889L133.398 39.5067H141.86L137.664 29.0889ZM162.813 41.7822C162.671 41.8059 162.457 41.8178 162.173 41.8178H157.053V49H152.288V24.1111H162.173C164.235 24.1111 166.025 24.4667 167.542 25.1778C169.083 25.8889 170.256 26.92 171.062 28.2711C171.891 29.5985 172.306 31.1748 172.306 33C172.306 34.8726 171.868 36.4844 170.991 37.8356C170.137 39.1867 168.917 40.1941 167.328 40.8578L172.733 49H167.613L162.813 41.7822ZM161.924 37.8C163.726 37.8 165.1 37.3852 166.048 36.5556C167.02 35.7022 167.506 34.517 167.506 33C167.506 31.483 167.032 30.3096 166.084 29.48C165.136 28.6504 163.749 28.2356 161.924 28.2356H157.053V37.8H161.924ZM173.015 28.2356V24.1111H193.246V28.2356H185.531V49H180.766V28.2356H173.015Z" fill="white"/>
<defs>
<filter id="filter0_f_2188_10" x="0" y="31" width="281" height="86" filterUnits="userSpaceOnUse" color-interpolation-filters="sRGB">
<feFlood flood-opacity="0" result="BackgroundImageFix"/>
<feBlend mode="normal" in="SourceGraphic" in2="BackgroundImageFix" result="shape"/>
<feGaussianBlur stdDeviation="12" result="effect1_foregroundBlur_2188_10"/>
</filter>
</defs>
</svg>
