<svg width="268" height="127" viewBox="0 0 268 127" fill="none" xmlns="http://www.w3.org/2000/svg">
<g clip-path="url(#clip0_2188_118)">
<path d="M183.523 12.1189H174.604V59.6665H183.523V12.1189Z" fill="#EFEFEF" stroke="#1C1C1C" stroke-miterlimit="10"/>
<path d="M183.554 59.6979H174.57V12.0848H183.554V59.6979ZM174.638 59.6324H183.492V12.1503H174.638V59.6324Z" fill="#1C1C1C" stroke="#1C1C1C" stroke-miterlimit="10"/>
<path d="M248 12.1189H239.082V59.6665H248V12.1189Z" fill="#EFEFEF" stroke="#1C1C1C" stroke-miterlimit="10"/>
<path d="M248.034 59.6979H239.05V12.0848H248.034V59.6979ZM239.116 59.6324H247.969V12.1503H239.116V59.6324Z" fill="#1C1C1C" stroke="#1C1C1C" stroke-miterlimit="10"/>
<path d="M194.625 12.1189H185.707V77.1004H194.625V12.1189Z" fill="#EFEFEF" stroke="#1C1C1C" stroke-miterlimit="10"/>
<path d="M194.659 77.1345H185.675V12.0848H194.659V77.1319V77.1345ZM185.741 77.069H194.594V12.1503H185.741V77.0663V77.069Z" fill="#1C1C1C" stroke="#1C1C1C" stroke-miterlimit="10"/>
<path d="M126.611 59.6665V50.7503H70.1348V59.6665H126.611Z" fill="#EFEFEF" stroke="#1C1C1C" stroke-miterlimit="10"/>
<path d="M126.643 59.6979H70.1007V50.7162H126.643V59.6979ZM70.1662 59.6324H126.577V50.7817H70.1662V59.6324Z" fill="#1C1C1C" stroke="#1C1C1C" stroke-miterlimit="10"/>
<path d="M32.8665 11.3064C35.9447 11.3064 38.44 8.81173 38.44 5.73443C38.44 2.65713 35.9447 0.162491 32.8665 0.162491C29.7884 0.162491 27.2931 2.65713 27.2931 5.73443C27.2931 8.81173 29.7884 11.3064 32.8665 11.3064Z" fill="#EFEFEF" stroke="#1C1C1C" stroke-miterlimit="10"/>
<path d="M32.8666 11.3405C29.7757 11.3405 27.259 8.82705 27.259 5.73706C27.259 2.64707 29.7757 0.131042 32.8666 0.131042C35.9574 0.131042 38.4715 2.64445 38.4715 5.73444C38.4715 8.82443 35.9574 11.3378 32.8666 11.3378V11.3405ZM32.8666 0.196564C29.8124 0.196564 27.3246 2.68114 27.3246 5.73444C27.3246 8.78774 29.8098 11.2723 32.8666 11.2723C35.9233 11.2723 38.4059 8.78774 38.4059 5.73444C38.4059 2.68114 35.9207 0.196564 32.8666 0.196564Z" fill="#1C1C1C" stroke="#1C1C1C" stroke-miterlimit="10"/>
<path d="M98.3717 11.3064C101.45 11.3064 103.945 8.81173 103.945 5.73443C103.945 2.65713 101.45 0.162491 98.3717 0.162491C95.2935 0.162491 92.7982 2.65713 92.7982 5.73443C92.7982 8.81173 95.2935 11.3064 98.3717 11.3064Z" fill="#EFEFEF" stroke="#1C1C1C" stroke-miterlimit="10"/>
<path d="M98.3717 11.3405C95.2809 11.3405 92.7642 8.82705 92.7642 5.73706C92.7642 2.64707 95.2809 0.131042 98.3717 0.131042C101.463 0.131042 103.977 2.64445 103.977 5.73444C103.977 8.82443 101.463 11.3378 98.3717 11.3378V11.3405ZM98.3717 0.196564C95.3176 0.196564 92.8297 2.68114 92.8297 5.73444C92.8297 8.78774 95.3149 11.2723 98.3717 11.2723C101.428 11.2723 103.911 8.78774 103.911 5.73444C103.911 2.68114 101.426 0.196564 98.3717 0.196564Z" fill="#1C1C1C" stroke="#1C1C1C" stroke-miterlimit="10"/>
<path d="M98.3717 65.2777C101.45 65.2777 103.945 62.7831 103.945 59.7058C103.945 56.6285 101.45 54.1339 98.3717 54.1339C95.2935 54.1339 92.7982 56.6285 92.7982 59.7058C92.7982 62.7831 95.2935 65.2777 98.3717 65.2777Z" fill="#EFEFEF" stroke="#1C1C1C" stroke-miterlimit="10"/>
<path d="M98.3717 65.3118C95.2809 65.3118 92.7642 62.7984 92.7642 59.7058C92.7642 56.6132 95.2782 54.1024 98.3717 54.1024C101.465 54.1024 103.977 56.6158 103.977 59.7058C103.977 62.7958 101.463 65.3118 98.3717 65.3118ZM98.3717 54.1679C95.3176 54.1679 92.8297 56.6525 92.8297 59.7058C92.8297 62.7591 95.3149 65.2463 98.3717 65.2463C101.428 65.2463 103.911 62.7617 103.911 59.7058C103.911 56.6499 101.426 54.1679 98.3717 54.1679Z" fill="#1C1C1C" stroke="#1C1C1C" stroke-miterlimit="10"/>
<path d="M172.515 36.0237C175.593 36.0237 178.088 33.5291 178.088 30.4518C178.088 27.3745 175.593 24.8798 172.515 24.8798C169.437 24.8798 166.942 27.3745 166.942 30.4518C166.942 33.5291 169.437 36.0237 172.515 36.0237Z" fill="#EFEFEF" stroke="#1C1C1C" stroke-miterlimit="10"/>
<path d="M172.515 36.0578C169.424 36.0578 166.91 33.5444 166.91 30.4544C166.91 27.3644 169.424 24.851 172.515 24.851C175.606 24.851 178.12 27.3644 178.12 30.4544C178.12 33.5444 175.606 36.0578 172.515 36.0578ZM172.515 24.9139C169.461 24.9139 166.976 27.3985 166.976 30.4518C166.976 33.5051 169.461 35.9896 172.515 35.9896C175.569 35.9896 178.054 33.5051 178.054 30.4518C178.054 27.3985 175.569 24.9139 172.515 24.9139Z" fill="#1C1C1C" stroke="#1C1C1C" stroke-miterlimit="10"/>
<path d="M166.556 45.105C165.14 41.3231 162.335 38.3169 158.655 36.6448C158.065 36.3775 157.433 36.139 156.778 35.9398L156.749 35.932L153.197 43.7264L153.241 43.7316C153.907 43.8181 154.557 44.0016 155.173 44.282C156.812 45.0263 158.06 46.3656 158.691 48.0482C159.323 49.7334 159.258 51.5628 158.513 53.2008C156.972 56.5817 152.968 58.0808 149.587 56.5424C149.002 56.2777 148.465 55.9291 147.98 55.5124L147.998 55.4862C147.998 55.4862 146.774 54.6003 145.633 52.75C144.582 51.0438 143.376 48.1347 143.62 43.978C144.084 36.008 157.176 12.7819 157.307 12.5487L157.336 12.4989H147.437L147.429 12.5094C144.648 15.9872 142.624 20.3772 140.781 24.4054C138.534 29.3143 136.358 34.5717 135.543 39.9288C134.269 48.3024 136.426 59.0165 144.477 63.3645L144.501 63.3199C145.033 63.6449 145.573 63.9332 146.108 64.177C148.134 65.0969 150.258 65.5346 152.35 65.5346C158.104 65.5346 163.615 62.2401 166.152 56.6734C167.828 52.9964 167.972 48.8869 166.556 45.105Z" fill="#EFEFEF" stroke="#1C1C1C" stroke-miterlimit="10"/>
<path d="M235.031 26.2715C234.061 21.7191 231.802 18.8623 231.781 18.8335H231.775C231.406 18.3224 231.013 17.8376 230.606 17.3999C224.925 11.2566 215.299 10.8739 209.149 16.5533C206.168 19.3026 204.44 23.0478 204.278 27.0971C204.118 31.1463 205.544 35.0147 208.297 37.992C208.737 38.469 209.227 38.9329 209.76 39.3732L209.783 39.3915L216.064 33.5942L216.098 33.5627L216.059 33.5391C215.477 33.201 214.948 32.7765 214.486 32.2785C213.262 30.9523 212.625 29.2304 212.698 27.4273C212.769 25.6241 213.54 23.9573 214.866 22.7333C217.606 20.2042 221.892 20.3746 224.422 23.1107C224.865 23.5903 225.232 24.1276 225.518 24.7068L225.507 24.7173L225.478 24.7357C225.486 24.7488 226.265 26.0277 226.6 28.1742C226.91 30.1556 226.891 33.3032 225.056 37.0432C224.042 39.1111 220.838 43.3123 211.325 51.5968C205.633 56.5529 200.311 60.6755 200.256 60.7174L200.212 60.7515L209.324 64.5806L209.34 64.5858L209.353 64.5779C209.379 64.5648 212.067 63.1155 216.004 59.9128C219.638 56.9565 225.111 51.8615 230.551 44.3633C232.9 41.1239 234.429 37.7666 235.092 34.383C235.621 31.6757 235.6 28.9474 235.031 26.2741V26.2715Z" fill="#EFEFEF" stroke="#1C1C1C" stroke-miterlimit="10"/>
<path d="M45.6913 59.5302C33.6714 59.5302 23.9297 69.2719 23.9297 81.2859C23.9297 93.2999 33.6741 103.042 45.6913 103.042C57.7086 103.042 67.453 93.2999 67.453 81.2859C67.453 69.2719 57.7086 59.5302 45.6913 59.5302ZM45.6913 94.3902C38.4532 94.3902 32.5835 88.5221 32.5835 81.2859C32.5835 74.0497 38.4532 68.1816 45.6913 68.1816C52.9295 68.1816 58.7992 74.0497 58.7992 81.2859C58.7992 88.5221 52.9295 94.3902 45.6913 94.3902Z" fill="#EFEFEF" stroke="#1C1C1C" stroke-miterlimit="10"/>
<path d="M45.6913 103.076C39.8688 103.076 34.3976 100.809 30.2791 96.6939C26.1633 92.5792 23.8956 87.1068 23.8956 81.2859C23.8956 75.465 26.1633 69.9953 30.2791 65.8779C34.395 61.7631 39.8688 59.4961 45.6913 59.4961C51.5139 59.4961 56.9851 61.7631 61.1035 65.8779C65.222 69.9926 67.4871 75.465 67.4871 81.2859C67.4871 87.1068 65.2194 92.5766 61.1035 96.6939C56.9877 100.809 51.5139 103.076 45.6913 103.076ZM45.6913 59.5616C39.8872 59.5616 34.4317 61.8208 30.3263 65.9251C26.221 70.0293 23.9612 75.4833 23.9612 81.2859C23.9612 87.0885 26.221 92.5425 30.3263 96.6468C34.4317 100.751 39.8872 103.01 45.6913 103.01C51.4955 103.01 56.951 100.751 61.0564 96.6468C65.1617 92.5425 67.4215 87.0885 67.4215 81.2859C67.4215 75.4833 65.1617 70.0293 61.0564 65.9251C56.951 61.8208 51.4955 59.5616 45.6913 59.5616ZM45.6913 94.4243C38.4453 94.4243 32.5494 88.53 32.5494 81.2885C32.5494 74.0471 38.4453 68.1502 45.6913 68.1502C52.9374 68.1502 58.8333 74.0445 58.8333 81.2885C58.8333 88.5326 52.9374 94.4243 45.6913 94.4243ZM45.6913 68.2131C38.482 68.2131 32.615 74.0759 32.615 81.2859C32.615 88.4959 38.4794 94.3587 45.6913 94.3587C52.9033 94.3587 58.7677 88.4959 58.7677 81.2859C58.7677 74.0759 52.9033 68.2131 45.6913 68.2131Z" fill="#1C1C1C" stroke="#1C1C1C" stroke-miterlimit="10"/>
<path d="M225.544 36.0237C228.622 36.0237 231.117 33.5291 231.117 30.4518C231.117 27.3745 228.622 24.8798 225.544 24.8798C222.466 24.8798 219.971 27.3745 219.971 30.4518C219.971 33.5291 222.466 36.0237 225.544 36.0237Z" fill="#EFEFEF" stroke="#1C1C1C" stroke-miterlimit="10"/>
<path d="M225.544 36.0578C222.453 36.0578 219.939 33.5444 219.939 30.4544C219.939 27.3644 222.453 24.851 225.544 24.851C228.635 24.851 231.149 27.3644 231.149 30.4544C231.149 33.5444 228.635 36.0578 225.544 36.0578ZM225.544 24.9139C222.49 24.9139 220.005 27.3985 220.005 30.4518C220.005 33.5051 222.49 35.9896 225.544 35.9896C228.598 35.9896 231.083 33.5051 231.083 30.4518C231.083 27.3985 228.598 24.9139 225.544 24.9139Z" fill="#1C1C1C" stroke="#1C1C1C" stroke-miterlimit="10"/>
<path d="M236.974 36.0237C240.052 36.0237 242.548 33.5291 242.548 30.4518C242.548 27.3745 240.052 24.8798 236.974 24.8798C233.896 24.8798 231.401 27.3745 231.401 30.4518C231.401 33.5291 233.896 36.0237 236.974 36.0237Z" fill="#EFEFEF" stroke="#1C1C1C" stroke-miterlimit="10"/>
<path d="M236.974 36.0578C233.883 36.0578 231.369 33.5444 231.369 30.4544C231.369 27.3644 233.883 24.851 236.974 24.851C240.065 24.851 242.579 27.3644 242.579 30.4544C242.579 33.5444 240.065 36.0578 236.974 36.0578ZM236.974 24.9139C233.92 24.9139 231.435 27.3985 231.435 30.4518C231.435 33.5051 233.92 35.9896 236.974 35.9896C240.028 35.9896 242.513 33.5051 242.513 30.4518C242.513 27.3985 240.028 24.9139 236.974 24.9139Z" fill="#1C1C1C" stroke="#1C1C1C" stroke-miterlimit="10"/>
<path d="M232.656 126.05C232.672 125.741 232.68 125.429 232.68 125.12V125.086H232.229" fill="#EFEFEF"/>
<path d="M232.656 126.05C232.672 125.741 232.68 125.429 232.68 125.12V125.086H232.229" stroke="#1C1C1C" stroke-miterlimit="10"/>
<path d="M13.4774 34.7657C13.3254 34.6241 13.1654 34.4879 12.995 34.3621L12.9243 34.7106C12.5074 34.6844 12.0854 34.708 11.6633 34.7814C10.1847 35.0356 8.89228 35.8507 8.02716 37.0747C7.15943 38.3012 6.82386 39.7899 7.07553 41.268C7.20399 42.0071 7.47139 42.699 7.85938 43.3149C7.959 43.4722 8.06649 43.6268 8.18184 43.7736C8.51478 44.2034 8.91588 44.5834 9.37203 44.9058C9.78362 45.1967 10.2319 45.4326 10.7038 45.6029L10.709 45.5715C10.2529 45.4037 9.80721 45.1731 9.39038 44.8796C8.92898 44.552 8.53051 44.1693 8.20281 43.7421C6.73211 41.8525 6.59841 39.1504 8.05338 37.093C9.20425 35.4654 11.0656 34.6399 12.919 34.7395C13.1209 34.7499 13.3201 34.7709 13.522 34.805C13.5062 34.7919 13.4931 34.7788 13.4774 34.7657ZM6.83435 51.3452L6.8527 51.319L6.85008 51.3164L6.83435 51.3452Z" fill="#EFEFEF" stroke="#1C1C1C" stroke-miterlimit="10"/>
<path d="M21.1089 31.1672C20.692 30.782 20.2595 30.4308 19.8243 30.1241C14.201 26.1483 6.39399 27.4902 2.41707 33.1093C-1.55723 38.731 -0.217608 46.5386 5.40566 50.5118C5.84084 50.8211 6.31796 51.112 6.81868 51.3741L6.82917 51.3793C6.82917 51.3793 6.83965 51.3845 6.8449 51.3872L6.86325 51.361L6.8816 51.3347C6.86587 51.3269 6.85801 51.3216 6.85276 51.319C6.85276 51.3164 6.85014 51.3164 6.85014 51.3164L6.83441 51.3452C6.35204 51.091 5.88016 50.8079 5.42401 50.4856C-0.191392 46.515 -1.52577 38.7441 2.44328 33.1303C6.41496 27.5138 14.1879 26.1797 19.8059 30.1503C20.2621 30.4727 20.6868 30.8239 21.0853 31.1934L17.0428 36.9095C16.7099 36.4797 16.3088 36.0892 15.8395 35.7564C15.1238 35.2505 14.3295 34.936 13.522 34.805C13.5063 34.7919 13.4932 34.7788 13.4775 34.7657C13.294 34.7368 13.1104 34.7185 12.9243 34.7106C12.5075 34.6844 12.0854 34.708 11.6633 34.7814C10.1848 35.0356 8.89234 35.8507 8.02723 37.0747C7.15949 38.3012 6.82393 39.7899 7.0756 41.268C7.20405 42.0071 7.47145 42.699 7.85944 43.3149C7.95906 43.4722 8.06655 43.6268 8.1819 43.7736C8.51484 44.2034 8.91594 44.5834 9.37209 44.9058C9.78368 45.1967 10.232 45.4326 10.7038 45.6029L10.7091 45.5715C10.7641 45.5898 10.8218 45.6082 10.8769 45.6265L10.8638 45.658C10.8638 45.658 10.8742 45.6632 10.89 45.6684L10.9083 45.6396L10.9267 45.6134L10.9031 45.6029C10.8926 45.6003 10.8874 45.5977 10.8874 45.5977H10.8847C10.8271 45.5767 10.772 45.5584 10.7143 45.5374C10.2529 45.3697 9.81251 45.139 9.40617 44.8507C8.94477 44.5258 8.54892 44.1405 8.22122 43.7159C6.76625 41.8368 6.63517 39.1504 8.07703 37.114C8.93429 35.9005 10.211 35.0959 11.6738 34.8469C12.088 34.7762 12.5022 34.7526 12.9086 34.7735C13.1288 34.784 13.3464 34.8076 13.5614 34.8469C14.3662 34.9832 15.1343 35.3003 15.8185 35.7852C16.2747 36.1049 16.6758 36.4928 17.014 36.9305L17.0402 36.9646L21.1115 31.2118L21.1272 31.1882L21.1062 31.1672H21.1089Z" fill="#EFEFEF" stroke="#1C1C1C" stroke-miterlimit="10"/>
<path d="M44.8944 21.415L49.1806 12.5644H11.3671V21.415H37.0978C37.0978 21.415 37.0847 21.436 37.0795 21.4465C37.0716 21.457 37.0664 21.4674 37.0585 21.4806C36.3926 22.6285 33.9755 26.7485 31.0997 31.1541C25.4554 39.7951 22.4066 42.8668 20.8415 43.9256C18.005 45.8414 15.4463 46.2083 13.7973 46.1821C12.1589 46.1559 11.0709 45.7418 10.89 45.6684C10.8743 45.6632 10.8638 45.658 10.8638 45.658L10.8769 45.6265C10.8219 45.6082 10.7642 45.5898 10.7091 45.5715L10.7039 45.6029C10.232 45.4326 9.78371 45.1967 9.37213 44.9058C8.91597 44.5834 8.51487 44.2034 8.18194 43.7736C8.06659 43.6268 7.9591 43.4722 7.85948 43.3149C7.47149 42.699 7.20409 42.0071 7.07563 41.268C6.82396 39.7899 7.15952 38.3012 8.02726 37.0747C8.89238 35.8507 10.1848 35.0356 11.6634 34.7814C12.0855 34.708 12.5075 34.6844 12.9244 34.7106L13.1026 34.7395C13.4041 34.7604 13.1079 34.7369 13.412 34.7814C13.4277 34.7945 13.5063 34.7919 13.5221 34.805C14.3295 34.936 15.1238 35.2505 15.8395 35.7564C16.3088 36.0892 16.7099 36.4797 17.0428 36.9095L21.0853 31.1935C20.6868 30.8239 20.2621 30.4727 19.806 30.1504C14.1879 26.1798 6.415 27.5138 2.44332 33.1303C-1.52573 38.7441 -0.191354 46.515 5.42405 50.4856C5.8802 50.808 6.35208 51.091 6.83445 51.3452L6.85018 51.3164C6.85018 51.3164 6.8528 51.3164 6.8528 51.319C6.85804 51.3216 6.86591 51.3269 6.88164 51.3347C7.18312 51.5051 9.65788 52.8496 13.218 53.1038C15.4384 53.2611 17.6432 52.9728 19.7666 52.2416C22.4223 51.3269 24.9626 49.7177 27.3141 47.4559C28.6013 46.2215 29.8335 44.8979 31.0001 43.5377C33.0921 41.1003 34.9849 38.5345 36.6181 36.1128C36.626 36.1023 36.6338 36.0918 36.6391 36.0814C36.6469 36.0735 36.6522 36.063 36.6574 36.0551C36.6679 36.0578 36.681 36.0604 36.6915 36.0656C36.702 36.0682 36.7098 36.0709 36.7203 36.0735C40.0759 37.1061 42.5219 40.2354 42.5219 43.9256C42.5219 48.457 38.8359 52.142 34.3059 52.142C33.1707 52.142 32.0697 51.9113 31.0315 51.4605V59.0846C32.1116 59.3153 33.2127 59.4332 34.3059 59.4332C42.8574 59.4332 49.8177 52.4774 49.8177 43.9256C49.8177 37.6303 46.0452 32.1999 40.6396 29.7729C40.6291 29.7677 40.6186 29.7625 40.6081 29.7598C40.6003 29.752 40.5898 29.7494 40.5793 29.7467C38.6603 28.8923 36.5368 28.418 34.3059 28.418V28.3524C36.5499 28.3524 38.6839 28.8294 40.6134 29.6891C43.1432 25.2729 44.6715 21.9104 44.8655 21.4806" fill="#EFEFEF"/>
<path d="M44.8944 21.415L49.1806 12.5644H11.3671V21.415H37.0978C37.0978 21.415 37.0847 21.436 37.0795 21.4465C37.0716 21.457 37.0664 21.4674 37.0585 21.4806C36.3926 22.6285 33.9755 26.7485 31.0997 31.1541C25.4554 39.7951 22.4066 42.8668 20.8415 43.9256C18.005 45.8414 15.4463 46.2083 13.7973 46.1821C12.1589 46.1559 11.0709 45.7418 10.89 45.6684C10.8743 45.6632 10.8638 45.658 10.8638 45.658L10.8769 45.6265C10.8219 45.6082 10.7642 45.5898 10.7091 45.5715L10.7039 45.6029C10.232 45.4326 9.78371 45.1967 9.37213 44.9058C8.91597 44.5834 8.51487 44.2034 8.18194 43.7736C8.06659 43.6268 7.9591 43.4722 7.85948 43.3149C7.47149 42.699 7.20409 42.0071 7.07563 41.268C6.82396 39.7899 7.15952 38.3012 8.02726 37.0747C8.89238 35.8507 10.1848 35.0356 11.6634 34.7814C12.0855 34.708 12.5075 34.6844 12.9244 34.7106L13.1026 34.7395C13.4041 34.7604 13.1079 34.7369 13.412 34.7814C13.4277 34.7945 13.5063 34.7919 13.5221 34.805C14.3295 34.936 15.1238 35.2505 15.8395 35.7564C16.3088 36.0892 16.7099 36.4797 17.0428 36.9095L21.0853 31.1935C20.6868 30.8239 20.2621 30.4727 19.806 30.1504C14.1879 26.1798 6.415 27.5138 2.44332 33.1303C-1.52573 38.7441 -0.191354 46.515 5.42405 50.4856C5.8802 50.808 6.35208 51.091 6.83445 51.3452L6.85018 51.3164C6.85018 51.3164 6.8528 51.3164 6.8528 51.319C6.85804 51.3216 6.86591 51.3269 6.88164 51.3347C7.18312 51.5051 9.65788 52.8496 13.218 53.1038C15.4384 53.2611 17.6432 52.9728 19.7666 52.2416C22.4223 51.3269 24.9626 49.7177 27.3141 47.4559C28.6013 46.2215 29.8335 44.8979 31.0001 43.5377C33.0921 41.1003 34.9849 38.5345 36.6181 36.1128C36.626 36.1023 36.6338 36.0918 36.6391 36.0813C36.6469 36.0735 36.6522 36.063 36.6574 36.0551C36.6679 36.0578 36.681 36.0604 36.6915 36.0656C36.702 36.0682 36.7098 36.0709 36.7203 36.0735C40.0759 37.1061 42.5219 40.2354 42.5219 43.9256C42.5219 48.457 38.8359 52.142 34.3059 52.142C33.1707 52.142 32.0697 51.9113 31.0315 51.4605V59.0846C32.1116 59.3153 33.2127 59.4332 34.3059 59.4332C42.8574 59.4332 49.8177 52.4774 49.8177 43.9256C49.8177 37.6303 46.0453 32.1999 40.6396 29.7729C40.6291 29.7677 40.6186 29.7625 40.6081 29.7598C40.6003 29.752 40.5898 29.7494 40.5793 29.7467C38.6603 28.8923 36.5368 28.418 34.3059 28.418V28.3524C36.5499 28.3524 38.6839 28.8294 40.6134 29.6891C43.1432 25.2729 44.6715 21.9104 44.8655 21.4806" stroke="#1C1C1C" stroke-miterlimit="10"/>
<path d="M66.1578 12.1189H57.2393V59.6665H66.1578V12.1189Z" fill="#EFEFEF" stroke="#1C1C1C" stroke-miterlimit="10"/>
<path d="M66.1893 59.6979H57.2052V12.0848H66.1893V59.6979ZM57.2707 59.6324H66.1238V12.1503H57.2707V59.6324Z" fill="#1C1C1C" stroke="#1C1C1C" stroke-miterlimit="10"/>
<path d="M56.8487 36.0237C59.9269 36.0237 62.4222 33.5291 62.4222 30.4518C62.4222 27.3745 59.9269 24.8798 56.8487 24.8798C53.7706 24.8798 51.2753 27.3745 51.2753 30.4518C51.2753 33.5291 53.7706 36.0237 56.8487 36.0237Z" fill="#EFEFEF" stroke="#1C1C1C" stroke-miterlimit="10"/>
<path d="M56.8487 36.0578C53.7579 36.0578 51.2438 33.5444 51.2438 30.4544C51.2438 27.3644 53.7579 24.851 56.8487 24.851C59.9395 24.851 62.4536 27.3644 62.4536 30.4544C62.4536 33.5444 59.9395 36.0578 56.8487 36.0578ZM56.8487 24.9139C53.7946 24.9139 51.3093 27.3985 51.3093 30.4518C51.3093 33.5051 53.7946 35.9896 56.8487 35.9896C59.9028 35.9896 62.3881 33.5051 62.3881 30.4518C62.3881 27.3985 59.9028 24.9139 56.8487 24.9139Z" fill="#1C1C1C" stroke="#1C1C1C" stroke-miterlimit="10"/>
<path d="M121.198 35.2453C120.333 31.1751 118.18 27.8099 115.134 25.7735C114.072 25.0659 112.932 24.5234 111.726 24.1538C111.731 24.1433 111.734 24.1355 111.739 24.1276C111.744 24.1145 111.75 24.104 111.757 24.0935C112.581 22.4424 113.021 21.4465 113.021 21.4465L117.339 12.5329H79.4388V21.4465H105.146C103.735 23.8786 94.0016 40.4687 88.9289 43.8968C83.7172 47.4192 79.4178 45.8047 79.0141 45.6396C78.9931 45.6318 78.9826 45.6265 78.9826 45.6265C78.4662 45.4588 77.9628 45.2098 77.4962 44.8796C74.9769 43.0974 74.3765 39.6116 76.1592 37.093C77.9392 34.5744 81.4259 33.9768 83.9452 35.7564C84.4145 36.0892 84.8156 36.4797 85.1485 36.9095L89.191 31.1935C88.7925 30.8239 88.3678 30.4727 87.9117 30.1504C82.2937 26.1798 74.5207 27.5138 70.549 33.1303C66.58 38.7441 67.9144 46.515 73.5298 50.4856C73.9859 50.808 74.4578 51.091 74.9402 51.3452C74.9402 51.3452 74.9506 51.3505 74.969 51.361C75.5693 51.7043 85.4343 57.1033 95.4435 47.4795C100.739 42.3898 105.143 35.8612 108.218 30.6142C108.224 30.6038 108.231 30.5933 108.237 30.5828C108.242 30.5723 108.247 30.5644 108.252 30.5566C111.092 31.3612 113.406 33.6754 114.062 36.7575C114.515 38.904 114.109 41.0977 112.911 42.9375C111.716 44.7774 109.875 46.0432 107.728 46.4966C106.617 46.7325 105.492 46.7378 104.383 46.5098L105.966 53.9687C107.073 53.9713 108.171 53.8586 109.241 53.6306C117.609 51.8563 122.973 43.6085 121.198 35.2453Z" fill="#EFEFEF" stroke="#1C1C1C" stroke-miterlimit="10"/>
<path d="M260.356 88.6584C253.377 94.9825 242.587 94.7781 235.852 88.0451C229.117 81.3121 228.931 71.0436 234.798 64.059H223.688C222.419 66.8083 221.635 69.7227 221.334 72.679L221.129 72.3226H221.114V72.354C220.922 75.8529 219.457 79.2364 216.754 82.4103C214.138 85.4872 210.47 88.2417 205.859 90.6031C196.371 95.4595 187.523 98.1328 174.279 98.1328C161.035 98.1328 148.515 95.4569 139.03 90.6031C134.418 88.2417 130.751 85.4845 128.134 82.4103C125.432 79.2338 123.966 75.8503 123.777 72.354V72.3226H114.206V72.3567C114.219 75.7009 115.016 78.977 116.571 82.1351C115.276 85.3037 113.126 88.0215 110.318 90.0291C107.227 92.2385 103.581 93.4074 99.7665 93.4074C94.9166 93.4074 90.3577 91.5204 86.9287 88.0923C83.4996 84.6642 81.6121 80.1065 81.6121 75.2579C81.6121 71.2402 82.9045 67.4294 85.3531 64.2372L85.3924 64.1848H74.4526L74.4447 64.2032C72.9164 67.6994 72.1404 71.4184 72.1404 75.2579C72.1404 82.6357 75.0136 89.5731 80.2332 94.7886C85.4501 100.007 92.3894 102.879 99.7691 102.879C102.983 102.879 106.132 102.331 109.128 101.254C112.022 100.211 114.709 98.6989 117.116 96.7568C119.326 94.972 121.235 92.857 122.792 90.514C125.316 92.9854 128.347 95.2656 131.86 97.3308C137.376 100.573 143.793 103.115 150.937 104.892C158.332 106.732 166.187 107.665 174.282 107.665C182.377 107.665 190.234 106.732 197.63 104.892C204.773 103.115 207.521 100.57 213.037 97.3308C217.645 94.6235 221.426 91.5413 224.317 88.1473C225.562 90.5166 227.177 92.7391 229.17 94.7309C239.598 105.157 256.374 105.361 267.054 95.3468L260.361 88.6558L260.356 88.6584Z" fill="#EFEFEF" stroke="#1C1C1C" stroke-miterlimit="10"/>
</g>
<defs>
<clipPath id="clip0_2188_118">
<rect width="267.237" height="126.055" fill="white"/>
</clipPath>
</defs>
</svg>
