<svg width="832" height="272" viewBox="0 0 832 272" fill="none" xmlns="http://www.w3.org/2000/svg">
<g opacity="0.4">
<g clip-path="url(#clip0_2188_334)">
<path d="M275.375 128.747V109.508L152.541 109.508V128.747H275.375Z" fill="#666666" stroke="#1C1C1C" stroke-width="2" stroke-miterlimit="10"/>
<path d="M275.444 128.815H152.467V109.435H275.444V128.815ZM152.609 128.674H275.301V109.576H152.609V128.674Z" fill="#1C1C1C" stroke="#1C1C1C" stroke-width="2" stroke-miterlimit="10"/>
<path d="M71.4839 24.3967C78.1788 24.3967 83.606 19.0138 83.606 12.3737C83.606 5.73354 78.1788 0.350647 71.4839 0.350647C64.7891 0.350647 59.3618 5.73354 59.3618 12.3737C59.3618 19.0138 64.7891 24.3967 71.4839 24.3967Z" fill="#666666" stroke="#1C1C1C" stroke-width="2" stroke-miterlimit="10"/>
<path d="M71.4838 24.4702C64.7614 24.4702 59.2876 19.0469 59.2876 12.3793C59.2876 5.7118 64.7614 0.282776 71.4838 0.282776C78.2063 0.282776 83.6743 5.70615 83.6743 12.3737C83.6743 19.0412 78.2063 24.4646 71.4838 24.4646V24.4702ZM71.4838 0.424157C64.8412 0.424157 59.4301 5.78532 59.4301 12.3737C59.4301 18.962 64.8355 24.3232 71.4838 24.3232C78.1321 24.3232 83.5318 18.962 83.5318 12.3737C83.5318 5.78532 78.1264 0.424157 71.4838 0.424157Z" fill="#1C1C1C" stroke="#1C1C1C" stroke-width="2" stroke-miterlimit="10"/>
<path d="M213.956 24.3967C220.65 24.3967 226.078 19.0138 226.078 12.3737C226.078 5.73354 220.65 0.350647 213.956 0.350647C207.261 0.350647 201.833 5.73354 201.833 12.3737C201.833 19.0138 207.261 24.3967 213.956 24.3967Z" fill="#666666" stroke="#1C1C1C" stroke-width="2" stroke-miterlimit="10"/>
<path d="M213.955 24.4702C207.233 24.4702 201.759 19.0469 201.759 12.3793C201.759 5.7118 207.233 0.282776 213.955 0.282776C220.678 0.282776 226.146 5.70615 226.146 12.3737C226.146 19.0412 220.678 24.4646 213.955 24.4646V24.4702ZM213.955 0.424157C207.313 0.424157 201.902 5.78532 201.902 12.3737C201.902 18.962 207.307 24.3232 213.955 24.3232C220.604 24.3232 226.003 18.962 226.003 12.3737C226.003 5.78532 220.598 0.424157 213.955 0.424157Z" fill="#1C1C1C" stroke="#1C1C1C" stroke-width="2" stroke-miterlimit="10"/>
<path d="M213.956 140.855C220.65 140.855 226.078 135.472 226.078 128.832C226.078 122.192 220.65 116.809 213.956 116.809C207.261 116.809 201.833 122.192 201.833 128.832C201.833 135.472 207.261 140.855 213.956 140.855Z" fill="#666666" stroke="#1C1C1C" stroke-width="2" stroke-miterlimit="10"/>
<path d="M213.955 140.928C207.233 140.928 201.759 135.505 201.759 128.832C201.759 122.159 207.227 116.741 213.955 116.741C220.684 116.741 226.146 122.164 226.146 128.832C226.146 135.499 220.678 140.928 213.955 140.928ZM213.955 116.882C207.313 116.882 201.902 122.244 201.902 128.832C201.902 135.42 207.307 140.787 213.955 140.787C220.604 140.787 226.003 135.426 226.003 128.832C226.003 122.238 220.598 116.882 213.955 116.882Z" fill="#1C1C1C" stroke="#1C1C1C" stroke-width="2" stroke-miterlimit="10"/>
<path d="M99.3773 128.453C73.2344 128.453 52.0464 149.474 52.0464 175.397C52.0464 201.321 73.2401 222.341 99.3773 222.341C125.514 222.341 146.708 201.321 146.708 175.397C146.708 149.474 125.514 128.453 99.3773 128.453ZM99.3773 203.673C83.6345 203.673 70.8681 191.011 70.8681 175.397C70.8681 159.783 83.6345 147.121 99.3773 147.121C115.12 147.121 127.886 159.783 127.886 175.397C127.886 191.011 115.12 203.673 99.3773 203.673Z" fill="#666666" stroke="#1C1C1C" stroke-width="2" stroke-miterlimit="10"/>
<path d="M99.3772 222.415C86.7134 222.415 74.8137 217.523 65.8561 208.644C56.9043 199.766 51.9722 187.957 51.9722 175.397C51.9722 162.837 56.9043 151.034 65.8561 142.15C74.808 133.271 86.7134 128.38 99.3772 128.38C112.041 128.38 123.941 133.271 132.898 142.15C141.856 151.029 146.782 162.837 146.782 175.397C146.782 187.957 141.85 199.76 132.898 208.644C123.946 217.523 112.041 222.415 99.3772 222.415ZM99.3772 128.521C86.7533 128.521 74.8878 133.396 65.9588 142.252C57.0297 151.108 52.1147 162.876 52.1147 175.397C52.1147 187.918 57.0297 199.686 65.9588 208.543C74.8878 217.399 86.7533 222.273 99.3772 222.273C112.001 222.273 123.867 217.399 132.796 208.543C141.725 199.686 146.64 187.918 146.64 175.397C146.64 162.876 141.725 151.108 132.796 142.252C123.867 133.396 112.001 128.521 99.3772 128.521ZM99.3772 203.747C83.6173 203.747 70.7939 191.028 70.7939 175.403C70.7939 159.777 83.6173 147.053 99.3772 147.053C115.137 147.053 127.96 159.772 127.96 175.403C127.96 191.034 115.137 203.747 99.3772 203.747ZM99.3772 147.189C83.6971 147.189 70.9365 159.84 70.9365 175.397C70.9365 190.955 83.6914 203.605 99.3772 203.605C115.063 203.605 127.818 190.955 127.818 175.397C127.818 159.84 115.063 147.189 99.3772 147.189Z" fill="#1C1C1C" stroke="#1C1C1C" stroke-width="2" stroke-miterlimit="10"/>
<path d="M506.02 271.989C506.054 271.321 506.072 270.648 506.072 269.981V269.907H505.091" fill="#666666"/>
<path d="M506.02 271.989C506.054 271.321 506.072 270.648 506.072 269.981V269.907H505.091" stroke="#1C1C1C" stroke-width="2" stroke-miterlimit="10"/>
<path d="M29.3127 75.0167C28.982 74.7113 28.6342 74.4173 28.2636 74.1458L28.1096 74.898C27.203 74.8414 26.285 74.8923 25.367 75.0507C22.1512 75.5992 19.3402 77.358 17.4586 79.999C15.5713 82.6456 14.8415 85.8578 15.3888 89.0474C15.6682 90.6421 16.2498 92.1351 17.0937 93.4641C17.3103 93.8034 17.5441 94.1371 17.795 94.4538C18.5191 95.3812 19.3915 96.2012 20.3836 96.8968C21.2788 97.5246 22.2538 98.0335 23.2802 98.4011L23.2916 98.3333C22.2994 97.9713 21.3301 97.4737 20.4235 96.8403C19.42 96.1334 18.5533 95.3077 17.8406 94.3859C14.6419 90.3085 14.3511 84.4779 17.5156 80.0386C20.0187 76.5267 24.067 74.7453 28.0982 74.9602C28.5372 74.9828 28.9706 75.028 29.4096 75.1015C29.3754 75.0733 29.3469 75.045 29.3127 75.0167ZM14.8643 110.792L14.9042 110.735L14.8985 110.73L14.8643 110.792Z" fill="#666666" stroke="#1C1C1C" stroke-width="2" stroke-miterlimit="10"/>
<path d="M45.9109 67.252C45.0043 66.4207 44.0635 65.6629 43.117 65.0013C30.8866 56.4223 13.9066 59.3178 5.25688 71.4426C-3.3871 83.5731 -0.47346 100.42 11.757 108.993C12.7035 109.661 13.7412 110.288 14.8303 110.854L14.8531 110.865C14.8531 110.865 14.8759 110.877 14.8873 110.882L14.9272 110.826L14.9671 110.769C14.9329 110.752 14.9158 110.741 14.9044 110.735C14.9044 110.73 14.8987 110.73 14.8987 110.73L14.8645 110.792C13.8153 110.243 12.789 109.632 11.7969 108.937C-0.416442 100.369 -3.31867 83.6013 5.3139 71.4878C13.9522 59.3687 30.8581 56.4901 43.0771 65.0578C44.0692 65.7534 44.9929 66.5112 45.8596 67.3086L37.0674 79.6427C36.3433 78.7152 35.4709 77.8726 34.4503 77.1544C32.8937 76.0629 31.166 75.3843 29.4098 75.1015C29.3756 75.0732 29.3471 75.045 29.3129 75.0167C28.9138 74.9545 28.5146 74.9149 28.1098 74.8979C27.2032 74.8414 26.2852 74.8923 25.3672 75.0506C22.1514 75.5992 19.3404 77.358 17.4588 79.999C15.5715 82.6456 14.8417 85.8578 15.389 89.0473C15.6684 90.6421 16.25 92.1351 17.0939 93.4641C17.3105 93.8034 17.5443 94.1371 17.7952 94.4537C18.5193 95.3812 19.3917 96.2012 20.3838 96.8968C21.279 97.5245 22.254 98.0335 23.2804 98.4011L23.2918 98.3332C23.4115 98.3728 23.5369 98.4124 23.6567 98.452L23.6282 98.5199C23.6282 98.5199 23.651 98.5312 23.6852 98.5425L23.7251 98.4803L23.765 98.4237L23.7137 98.4011C23.6909 98.3954 23.6795 98.3898 23.6795 98.3898H23.6738C23.5484 98.3445 23.4286 98.305 23.3032 98.2597C22.2997 97.8978 21.3417 97.4001 20.458 96.778C19.4544 96.0768 18.5935 95.2455 17.8807 94.3293C14.7162 90.2745 14.4311 84.4779 17.5671 80.0838C19.4316 77.4654 22.2084 75.7293 25.39 75.192C26.2909 75.0393 27.1918 74.9884 28.0756 75.0337C28.5546 75.0563 29.0278 75.1072 29.4954 75.192C31.2458 75.4861 32.9165 76.1704 34.4046 77.2166C35.3968 77.9065 36.2691 78.7435 37.0047 79.6879L37.0617 79.7614L45.9166 67.3482L45.9508 67.2973L45.9052 67.252H45.9109Z" fill="#666666" stroke="#1C1C1C" stroke-width="2" stroke-miterlimit="10"/>
<path d="M97.6437 46.2089L106.966 27.1112H24.723V46.2089H80.6864C80.6864 46.2089 80.6579 46.2542 80.6465 46.2768C80.6294 46.2994 80.618 46.322 80.6009 46.3503C79.1526 48.8273 73.8956 57.7174 67.6406 67.2238C55.3646 85.8691 48.7334 92.4971 45.3294 94.7818C39.16 98.9157 33.595 99.7075 30.0086 99.6509C26.4449 99.5944 24.0787 98.7009 23.6852 98.5425C23.651 98.5312 23.6282 98.5199 23.6282 98.5199L23.6567 98.452C23.537 98.4124 23.4116 98.3728 23.2918 98.3333L23.2804 98.4011C22.2541 98.0335 21.2791 97.5246 20.3839 96.8968C19.3918 96.2012 18.5194 95.3812 17.7953 94.4538C17.5444 94.1371 17.3106 93.8034 17.0939 93.4641C16.2501 92.1351 15.6685 90.6421 15.3891 89.0474C14.8417 85.8578 15.5715 82.6456 17.4588 79.999C19.3405 77.358 22.1515 75.5992 25.3673 75.0507C26.2853 74.8923 27.2033 74.8414 28.1099 74.898L28.4976 74.9602C29.1533 75.0054 28.509 74.9545 29.1704 75.0507C29.2046 75.0789 29.3757 75.0733 29.4099 75.1015C31.166 75.3843 32.8937 76.0629 34.4503 77.1544C35.4709 77.8726 36.3433 78.7152 37.0674 79.6427L45.8597 67.3086C44.993 66.5112 44.0693 65.7534 43.0772 65.0578C30.8581 56.4902 13.9522 59.3687 5.31395 71.4879C-3.31862 83.6014 -0.416389 100.369 11.7969 108.937C12.789 109.632 13.8154 110.243 14.8645 110.792L14.8987 110.73C14.8987 110.73 14.9044 110.73 14.9044 110.735C14.9158 110.741 14.9329 110.752 14.9671 110.769C15.6229 111.137 21.0054 114.038 28.7485 114.586C33.5779 114.926 38.3732 114.304 42.9916 112.726C48.7676 110.752 54.2927 107.28 59.4072 102.399C62.2068 99.7358 64.8867 96.8799 67.424 93.9448C71.974 88.6854 76.0908 83.1489 79.643 77.9235C79.6601 77.9009 79.6772 77.8783 79.6886 77.8556C79.7057 77.8387 79.7171 77.8161 79.7285 77.7991C79.7513 77.8048 79.7799 77.8104 79.8027 77.8217C79.8255 77.8274 79.8426 77.833 79.8654 77.8387C87.1637 80.0668 92.4835 86.8192 92.4835 94.7818C92.4835 104.56 84.4668 112.511 74.614 112.511C72.1451 112.511 69.7503 112.013 67.4924 111.041V127.492C69.8416 127.989 72.2363 128.244 74.614 128.244C93.2134 128.244 108.352 113.235 108.352 94.7818C108.352 81.1979 100.147 69.4802 88.3896 64.2435C88.3668 64.2322 88.344 64.2209 88.3212 64.2152C88.3041 64.1982 88.2813 64.1926 88.2585 64.1869C84.0847 62.3433 79.4662 61.3197 74.614 61.3197V61.1784C79.4948 61.1784 84.136 62.2076 88.3326 64.0625C93.8349 54.5334 97.159 47.2778 97.581 46.3503" fill="#666666"/>
<path d="M97.6437 46.2089L106.966 27.1112H24.723V46.2089H80.6864C80.6864 46.2089 80.6579 46.2542 80.6465 46.2768C80.6294 46.2994 80.618 46.322 80.6009 46.3503C79.1526 48.8273 73.8956 57.7174 67.6406 67.2238C55.3646 85.8691 48.7334 92.4971 45.3294 94.7818C39.16 98.9158 33.595 99.7075 30.0086 99.6509C26.4449 99.5944 24.0787 98.7008 23.6852 98.5425C23.651 98.5312 23.6282 98.5199 23.6282 98.5199L23.6567 98.452C23.537 98.4124 23.4116 98.3728 23.2918 98.3333L23.2804 98.4011C22.2541 98.0335 21.2791 97.5246 20.3839 96.8968C19.3918 96.2012 18.5194 95.3812 17.7953 94.4538C17.5444 94.1371 17.3106 93.8034 17.0939 93.4641C16.2501 92.1351 15.6685 90.6421 15.3891 89.0474C14.8417 85.8578 15.5715 82.6456 17.4588 79.999C19.3405 77.358 22.1515 75.5992 25.3673 75.0507C26.2853 74.8923 27.2033 74.8414 28.1099 74.898L28.4976 74.9602C29.1533 75.0054 28.509 74.9545 29.1704 75.0507C29.2046 75.0789 29.3757 75.0733 29.4099 75.1015C31.166 75.3843 32.8937 76.0629 34.4503 77.1544C35.4709 77.8726 36.3433 78.7152 37.0674 79.6427L45.8597 67.3086C44.993 66.5112 44.0693 65.7534 43.0772 65.0578C30.8581 56.4902 13.9522 59.3687 5.31395 71.4879C-3.31862 83.6014 -0.416389 100.369 11.7969 108.937C12.789 109.632 13.8154 110.243 14.8645 110.792L14.8987 110.73C14.8987 110.73 14.9044 110.73 14.9044 110.735C14.9158 110.741 14.9329 110.752 14.9671 110.769C15.6229 111.137 21.0054 114.038 28.7485 114.586C33.5779 114.926 38.3732 114.304 42.9916 112.726C48.7676 110.752 54.2927 107.28 59.4072 102.399C62.2068 99.7358 64.8867 96.8799 67.424 93.9448C71.974 88.6854 76.0908 83.1489 79.643 77.9235C79.6601 77.9009 79.6772 77.8783 79.6886 77.8556C79.7057 77.8387 79.7171 77.8161 79.7285 77.7991C79.7513 77.8048 79.7799 77.8104 79.8027 77.8217C79.8255 77.8274 79.8426 77.833 79.8654 77.8387C87.1637 80.0668 92.4835 86.8192 92.4835 94.7818C92.4835 104.56 84.4668 112.511 74.614 112.511C72.1451 112.511 69.7503 112.013 67.4924 111.041V127.492C69.8416 127.989 72.2363 128.244 74.614 128.244C93.2134 128.244 108.352 113.235 108.352 94.7818C108.352 81.1979 100.147 69.4802 88.3896 64.2435C88.3668 64.2322 88.344 64.2209 88.3212 64.2152C88.3041 64.1982 88.2813 64.1926 88.2585 64.1869C84.0847 62.3433 79.4662 61.3197 74.614 61.3197V61.1784C79.4948 61.1784 84.136 62.2076 88.3326 64.0625C93.8349 54.5334 97.159 47.2778 97.581 46.3503" stroke="#1C1C1C" stroke-width="2" stroke-miterlimit="10"/>
<path d="M143.891 26.1498H124.494V128.747H143.891V26.1498Z" fill="#666666" stroke="#1C1C1C" stroke-width="2" stroke-miterlimit="10"/>
<path d="M143.96 128.815H124.419V26.0763H143.96V128.815ZM124.562 128.674H143.817V26.2177H124.562V128.674Z" fill="#1C1C1C" stroke="#1C1C1C" stroke-width="2" stroke-miterlimit="10"/>
<path d="M123.644 77.7316C130.339 77.7316 135.766 72.3487 135.766 65.7085C135.766 59.0684 130.339 53.6855 123.644 53.6855C116.949 53.6855 111.522 59.0684 111.522 65.7085C111.522 72.3487 116.949 77.7316 123.644 77.7316Z" fill="#666666" stroke="#1C1C1C" stroke-width="2" stroke-miterlimit="10"/>
<path d="M123.644 77.8047C116.922 77.8047 111.454 72.3813 111.454 65.7138C111.454 59.0463 116.922 53.6229 123.644 53.6229C130.367 53.6229 135.835 59.0463 135.835 65.7138C135.835 72.3813 130.367 77.8047 123.644 77.8047ZM123.644 53.7586C117.001 53.7586 111.596 59.1198 111.596 65.7082C111.596 72.2965 117.001 77.6577 123.644 77.6577C130.287 77.6577 135.692 72.2965 135.692 65.7082C135.692 59.1198 130.287 53.7586 123.644 53.7586Z" fill="#1C1C1C" stroke="#1C1C1C" stroke-width="2" stroke-miterlimit="10"/>
<path d="M263.601 76.0516C261.72 67.269 257.038 60.0077 250.413 55.6136C248.104 54.0867 245.623 52.916 243.001 52.1187C243.012 52.096 243.018 52.0791 243.029 52.0621C243.04 52.0338 243.052 52.0112 243.069 51.9886C244.859 48.4258 245.817 46.2768 245.817 46.2768L255.208 27.0433H172.777V46.2768H228.689C225.621 51.5249 204.45 87.3225 193.417 94.7196C182.082 102.32 172.731 98.8366 171.853 98.4803C171.807 98.4633 171.785 98.452 171.785 98.452C170.661 98.0901 169.567 97.5528 168.552 96.8403C163.072 92.9947 161.767 85.4732 165.644 80.0386C169.515 74.6039 177.099 73.3145 182.578 77.1544C183.599 77.8726 184.471 78.7152 185.195 79.6427L193.988 67.3086C193.121 66.5112 192.197 65.7534 191.205 65.0578C178.986 56.4902 162.08 59.3687 153.442 71.4878C144.809 83.6014 147.712 100.369 159.925 108.937C160.917 109.632 161.943 110.243 162.992 110.792C162.992 110.792 163.015 110.803 163.055 110.826C164.361 111.566 185.817 123.216 207.586 102.45C219.104 91.4678 228.683 77.3806 235.371 66.0588C235.383 66.0362 235.4 66.0136 235.411 65.9909C235.423 65.9683 235.434 65.9514 235.446 65.9344C241.621 67.6706 246.655 72.6641 248.081 79.3147C249.067 83.9463 248.184 88.6798 245.578 92.6497C242.978 96.6197 238.975 99.3512 234.305 100.33C231.888 100.839 229.442 100.85 227.03 100.358L230.474 116.453C232.88 116.458 235.269 116.215 237.595 115.723C255.795 111.895 267.461 94.0975 263.601 76.0516Z" fill="#666666" stroke="#1C1C1C" stroke-width="2" stroke-miterlimit="10"/>
<path d="M543.222 191.278C528.895 205.043 506.742 204.598 492.915 189.943C479.088 175.288 478.706 152.938 490.751 137.736H467.941C465.336 143.72 463.727 150.063 463.108 156.498L462.688 155.722H462.656V155.791C462.263 163.406 459.255 170.771 453.706 177.679C448.334 184.376 440.804 190.371 431.337 195.511C411.859 206.081 393.694 211.9 366.503 211.9C339.312 211.9 313.607 206.075 294.134 195.511C284.667 190.371 277.137 184.37 271.766 177.679C266.217 170.765 263.208 163.4 262.82 155.791V155.722H243.17V155.796C243.197 163.075 244.833 170.206 248.025 177.08C245.366 183.976 240.952 189.892 235.188 194.261C228.843 199.07 221.356 201.615 213.525 201.615C203.568 201.615 194.208 197.507 187.168 190.046C180.128 182.584 176.253 172.664 176.253 162.111C176.253 153.366 178.906 145.072 183.933 138.124L184.014 138.01H161.554L161.538 138.05C158.4 145.66 156.807 153.754 156.807 162.111C156.807 178.169 162.706 193.269 173.422 204.621C184.133 215.978 198.379 222.23 213.53 222.23C220.129 222.23 226.593 221.038 232.745 218.694C238.687 216.423 244.203 213.132 249.144 208.905C253.681 205.02 257.6 200.417 260.797 195.317C265.98 200.696 272.202 205.659 279.414 210.154C290.738 217.21 303.913 222.744 318.58 226.611C333.763 230.616 349.888 232.647 366.508 232.647C383.129 232.647 399.259 230.616 414.442 226.611C429.109 222.744 434.749 217.205 446.074 210.154C455.535 204.261 463.297 197.553 469.233 190.166C471.79 195.323 475.105 200.16 479.196 204.495C500.606 227.188 535.047 227.633 556.974 205.836L543.233 191.272L543.222 191.278Z" fill="url(#paint0_linear_2188_334)" stroke="#1C1C1C" stroke-width="2" stroke-miterlimit="10"/>
</g>
<path d="M649.546 26.1498H630.148V128.747H649.546V26.1498Z" fill="#666666" stroke="#1C1C1C" stroke-width="2" stroke-miterlimit="10"/>
<path d="M649.615 128.815H630.075V26.0762H649.615V128.815ZM630.223 128.673H649.479V26.2176H630.223V128.673Z" fill="#1C1C1C" stroke="#1C1C1C" stroke-width="2" stroke-miterlimit="10"/>
<path d="M789.783 26.1498H770.386V128.747H789.783V26.1498Z" fill="#666666" stroke="#1C1C1C" stroke-width="2" stroke-miterlimit="10"/>
<path d="M789.858 128.815H770.318V26.0762H789.858V128.815ZM770.46 128.673H789.716V26.2176H770.46V128.673Z" fill="#1C1C1C" stroke="#1C1C1C" stroke-width="2" stroke-miterlimit="10"/>
<path d="M673.695 26.1498H654.297V166.366H673.695V26.1498Z" fill="#666666" stroke="#1C1C1C" stroke-width="2" stroke-miterlimit="10"/>
<path d="M673.768 166.439H654.228V26.0762H673.768V166.434V166.439ZM654.371 166.298H673.626V26.2176H654.371V166.292V166.298Z" fill="#1C1C1C" stroke="#1C1C1C" stroke-width="2" stroke-miterlimit="10"/>
<path d="M625.605 77.7315C632.3 77.7315 637.727 72.3486 637.727 65.7085C637.727 59.0683 632.3 53.6854 625.605 53.6854C618.91 53.6854 613.483 59.0683 613.483 65.7085C613.483 72.3486 618.91 77.7315 625.605 77.7315Z" fill="#666666" stroke="#1C1C1C" stroke-width="2" stroke-miterlimit="10"/>
<path d="M625.606 77.8047C618.883 77.8047 613.415 72.3813 613.415 65.7138C613.415 59.0463 618.883 53.6229 625.606 53.6229C632.328 53.6229 637.796 59.0463 637.796 65.7138C637.796 72.3813 632.328 77.8047 625.606 77.8047ZM625.606 53.7586C618.963 53.7586 613.558 59.1198 613.558 65.7082C613.558 72.2965 618.963 77.6577 625.606 77.6577C632.248 77.6577 637.654 72.2965 637.654 65.7082C637.654 59.1198 632.248 53.7586 625.606 53.7586Z" fill="#1C1C1C" stroke="#1C1C1C" stroke-width="2" stroke-miterlimit="10"/>
<path d="M612.741 97.0689C609.675 88.8979 603.599 82.4029 595.627 78.7902C594.35 78.2127 592.981 77.6974 591.562 77.267L591.5 77.25L583.806 94.0904L583.902 94.1017C585.345 94.2886 586.753 94.685 588.087 95.2909C591.636 96.899 594.338 99.7926 595.707 103.428C597.075 107.069 596.933 111.021 595.321 114.561C591.982 121.865 583.312 125.104 575.987 121.78C574.721 121.208 573.557 120.455 572.507 119.555L572.547 119.498C572.547 119.498 569.895 117.584 567.425 113.587C565.148 109.9 562.536 103.615 563.064 94.634C564.069 77.4142 592.425 27.2328 592.709 26.7288L592.771 26.6212H571.332L571.314 26.6439C565.29 34.1581 560.907 43.6428 556.915 52.3462C552.049 62.9521 547.337 74.3112 545.571 85.8854C542.811 103.977 547.484 127.126 564.921 136.52L564.972 136.424C566.125 137.126 567.295 137.749 568.453 138.275C572.842 140.263 577.441 141.208 581.972 141.208C594.435 141.208 606.37 134.091 611.866 122.063C615.494 114.119 615.807 105.24 612.741 97.0689Z" fill="#666666" stroke="#1C1C1C" stroke-width="2" stroke-miterlimit="10"/>
<path d="M762.033 57.1086C759.915 47.3911 754.981 41.2931 754.935 41.2316H754.924C754.116 40.1407 753.258 39.1057 752.37 38.1714C739.965 25.0581 718.945 24.2413 705.515 36.3644C699.006 42.233 695.234 50.2274 694.879 58.8708C694.53 67.5142 697.644 75.7716 703.654 82.1269C704.616 83.1451 705.687 84.1353 706.849 85.0751L706.9 85.1143L720.616 72.7394L720.691 72.6723L720.605 72.6219C719.334 71.9003 718.178 70.994 717.17 69.931C714.497 67.1002 713.106 63.4247 713.266 59.5757C713.421 55.7268 715.104 52.1687 718 49.5561C723.982 44.1575 733.342 44.5211 738.866 50.3617C739.834 51.3855 740.635 52.5323 741.259 53.7687L741.236 53.7911L741.173 53.8302C741.19 53.8582 742.891 56.5883 743.623 61.1701C744.299 65.3995 744.259 72.1184 740.252 80.1017C738.036 84.5157 731.041 93.4836 710.266 111.168C697.838 121.747 686.218 130.547 686.097 130.636L686 130.709L705.899 138.882L705.933 138.894L705.962 138.877C706.019 138.849 711.886 135.755 720.485 128.919C728.419 122.608 740.372 111.733 752.25 95.7269C757.379 88.8122 760.717 81.6458 762.165 74.4234C763.321 68.6443 763.276 62.8205 762.033 57.1142V57.1086Z" fill="#666666" stroke="#1C1C1C" stroke-width="2" stroke-miterlimit="10"/>
<path d="M740.942 77.7315C747.637 77.7315 753.064 72.3486 753.064 65.7085C753.064 59.0683 747.637 53.6854 740.942 53.6854C734.247 53.6854 728.82 59.0683 728.82 65.7085C728.82 72.3486 734.247 77.7315 740.942 77.7315Z" fill="#666666" stroke="#1C1C1C" stroke-width="2" stroke-miterlimit="10"/>
<path d="M740.942 77.8047C734.22 77.8047 728.751 72.3813 728.751 65.7138C728.751 59.0463 734.22 53.6229 740.942 53.6229C747.664 53.6229 753.132 59.0463 753.132 65.7138C753.132 72.3813 747.664 77.8047 740.942 77.8047ZM740.942 53.7586C734.299 53.7586 728.894 59.1198 728.894 65.7082C728.894 72.2965 734.299 77.6577 740.942 77.6577C747.585 77.6577 752.99 72.2965 752.99 65.7082C752.99 59.1198 747.585 53.7586 740.942 53.7586Z" fill="#1C1C1C" stroke="#1C1C1C" stroke-width="2" stroke-miterlimit="10"/>
<path d="M765.801 77.7315C772.496 77.7315 777.923 72.3486 777.923 65.7085C777.923 59.0683 772.496 53.6854 765.801 53.6854C759.106 53.6854 753.679 59.0683 753.679 65.7085C753.679 72.3486 759.106 77.7315 765.801 77.7315Z" fill="#666666" stroke="#1C1C1C" stroke-width="2" stroke-miterlimit="10"/>
<path d="M765.801 77.8047C759.079 77.8047 753.611 72.3813 753.611 65.7138C753.611 59.0463 759.079 53.6229 765.801 53.6229C772.524 53.6229 777.992 59.0463 777.992 65.7138C777.992 72.3813 772.524 77.8047 765.801 77.8047ZM765.801 53.7586C759.159 53.7586 753.753 59.1198 753.753 65.7082C753.753 72.2965 759.159 77.6577 765.801 77.6577C772.444 77.6577 777.849 72.2965 777.849 65.7082C777.849 59.1198 772.444 53.7586 765.801 53.7586Z" fill="#1C1C1C" stroke="#1C1C1C" stroke-width="2" stroke-miterlimit="10"/>
<path d="M816.114 191.782C800.951 205.379 777.506 204.94 762.873 190.464C748.24 175.988 747.835 153.91 760.583 138.893H736.443C733.686 144.804 731.983 151.07 731.328 157.427L730.884 156.66H730.85V156.728C730.434 164.25 727.25 171.525 721.377 178.349C715.693 184.964 707.724 190.887 697.705 195.964C677.091 206.405 657.866 212.153 629.09 212.153C600.314 212.153 573.11 206.399 552.501 195.964C542.482 190.887 534.513 184.959 528.829 178.349C522.956 171.519 519.772 164.245 519.362 156.728V156.66H498.566V156.733C498.594 163.924 500.326 170.967 503.703 177.757C500.89 184.57 496.219 190.413 490.118 194.73C483.403 199.48 475.48 201.993 467.192 201.993C456.654 201.993 446.749 197.936 439.298 190.565C431.848 183.195 427.747 173.396 427.747 162.971C427.747 154.333 430.555 146.14 435.875 139.277L435.96 139.164H412.191L412.174 139.203C408.853 146.72 407.167 154.716 407.167 162.971C407.167 178.833 413.41 193.749 424.751 204.962C436.086 216.182 451.163 222.357 467.197 222.357C474.181 222.357 481.022 221.18 487.532 218.864C493.821 216.621 499.659 213.37 504.888 209.194C509.69 205.357 513.837 200.81 517.22 195.772C522.705 201.086 529.29 205.988 536.923 210.428C548.907 217.399 562.851 222.864 578.373 226.685C594.441 230.641 611.506 232.647 629.096 232.647C646.685 232.647 663.756 230.641 679.825 226.685C695.346 222.864 701.316 217.393 713.3 210.428C723.314 204.607 731.528 197.981 737.81 190.684C740.516 195.778 744.025 200.556 748.354 204.838C771.012 227.254 807.461 227.694 830.667 206.163L816.125 191.777L816.114 191.782Z" fill="url(#paint1_linear_2188_334)" stroke="#1C1C1C" stroke-width="2" stroke-miterlimit="10"/>
</g>
<defs>
<linearGradient id="paint0_linear_2188_334" x1="156.807" y1="185.191" x2="556.974" y2="185.191" gradientUnits="userSpaceOnUse">
<stop stop-color="#666666"/>
<stop offset="0.668269" stop-color="#1C1C1C"/>
</linearGradient>
<linearGradient id="paint1_linear_2188_334" x1="830.667" y1="185.77" x2="407.167" y2="185.77" gradientUnits="userSpaceOnUse">
<stop stop-color="#666666"/>
<stop offset="0.764423" stop-color="#1C1C1C"/>
</linearGradient>
<clipPath id="clip0_2188_334">
<rect width="581.233" height="272" fill="white"/>
</clipPath>
</defs>
</svg>
