<svg width="449" height="212" viewBox="0 0 449 212" fill="none" xmlns="http://www.w3.org/2000/svg">
<g clip-path="url(#clip0_2188_14)">
<path d="M308.347 20.3615H293.362V100.249H308.347V20.3615Z" fill="#EFEFEF" stroke="#4294EA" stroke-miterlimit="10"/>
<path d="M308.4 100.302H293.305V20.3043H308.4V100.302ZM293.419 100.192H308.294V20.4144H293.419V100.192Z" fill="#4294EA" stroke="#4294EA" stroke-miterlimit="10"/>
<path d="M416.679 20.3615H401.694V100.249H416.679V20.3615Z" fill="#EFEFEF" stroke="#4294EA" stroke-miterlimit="10"/>
<path d="M416.736 100.302H401.641V20.3043H416.736V100.302ZM401.751 100.192H416.626V20.4144H401.751V100.192Z" fill="#4294EA" stroke="#4294EA" stroke-miterlimit="10"/>
<path d="M327 20.3615H312.016V129.54H327V20.3615Z" fill="#EFEFEF" stroke="#4294EA" stroke-miterlimit="10"/>
<path d="M327.058 129.598H311.963V20.3043H327.058V129.593V129.598ZM312.073 129.488H326.947V20.4144H312.073V129.483V129.488Z" fill="#4294EA" stroke="#4294EA" stroke-miterlimit="10"/>
<path d="M212.726 100.249V85.2683H117.837V100.249H212.726Z" fill="#EFEFEF" stroke="#4294EA" stroke-miterlimit="10"/>
<path d="M212.779 100.302H117.78V85.211H212.779V100.302ZM117.89 100.192H212.669V85.3211H117.89V100.192Z" fill="#4294EA" stroke="#4294EA" stroke-miterlimit="10"/>
<path d="M55.221 18.9965C60.3927 18.9965 64.5852 14.8051 64.5852 9.63473C64.5852 4.4644 60.3927 0.27301 55.221 0.27301C50.0492 0.27301 45.8567 4.4644 45.8567 9.63473C45.8567 14.8051 50.0492 18.9965 55.221 18.9965Z" fill="#EFEFEF" stroke="#4294EA" stroke-miterlimit="10"/>
<path d="M55.221 19.0537C50.0279 19.0537 45.7994 14.8308 45.7994 9.63914C45.7994 4.44747 50.0279 0.220169 55.221 0.220169C60.414 0.220169 64.6381 4.44307 64.6381 9.63473C64.6381 14.8264 60.414 19.0493 55.221 19.0493V19.0537ZM55.221 0.330255C50.0896 0.330255 45.9096 4.50472 45.9096 9.63473C45.9096 14.7647 50.0852 18.9392 55.221 18.9392C60.3568 18.9392 64.528 14.7647 64.528 9.63473C64.528 4.50472 60.3524 0.330255 55.221 0.330255Z" fill="#4294EA" stroke="#4294EA" stroke-miterlimit="10"/>
<path d="M165.28 18.9965C170.451 18.9965 174.644 14.8051 174.644 9.63473C174.644 4.4644 170.451 0.27301 165.28 0.27301C160.108 0.27301 155.915 4.4644 155.915 9.63473C155.915 14.8051 160.108 18.9965 165.28 18.9965Z" fill="#EFEFEF" stroke="#4294EA" stroke-miterlimit="10"/>
<path d="M165.28 19.0537C160.087 19.0537 155.858 14.8308 155.858 9.63914C155.858 4.44747 160.087 0.220169 165.28 0.220169C170.473 0.220169 174.697 4.44307 174.697 9.63473C174.697 14.8264 170.473 19.0493 165.28 19.0493V19.0537ZM165.28 0.330255C160.148 0.330255 155.968 4.50472 155.968 9.63473C155.968 14.7647 160.144 18.9392 165.28 18.9392C170.415 18.9392 174.587 14.7647 174.587 9.63473C174.587 4.50472 170.411 0.330255 165.28 0.330255Z" fill="#4294EA" stroke="#4294EA" stroke-miterlimit="10"/>
<path d="M165.28 109.677C170.451 109.677 174.644 105.485 174.644 100.315C174.644 95.1445 170.451 90.9531 165.28 90.9531C160.108 90.9531 155.915 95.1445 155.915 100.315C155.915 105.485 160.108 109.677 165.28 109.677Z" fill="#EFEFEF" stroke="#4294EA" stroke-miterlimit="10"/>
<path d="M165.28 109.734C160.087 109.734 155.858 105.511 155.858 100.315C155.858 95.1188 160.082 90.9003 165.28 90.9003C170.477 90.9003 174.697 95.1232 174.697 100.315C174.697 105.507 170.473 109.734 165.28 109.734ZM165.28 91.0104C160.148 91.0104 155.968 95.1848 155.968 100.315C155.968 105.445 160.144 109.624 165.28 109.624C170.415 109.624 174.587 105.449 174.587 100.315C174.587 95.1804 170.411 91.0104 165.28 91.0104Z" fill="#4294EA" stroke="#4294EA" stroke-miterlimit="10"/>
<path d="M289.852 60.5253C295.023 60.5253 299.216 56.334 299.216 51.1636C299.216 45.9933 295.023 41.8019 289.852 41.8019C284.68 41.8019 280.487 45.9933 280.487 51.1636C280.487 56.334 284.68 60.5253 289.852 60.5253Z" fill="#EFEFEF" stroke="#4294EA" stroke-miterlimit="10"/>
<path d="M289.852 60.5826C284.659 60.5826 280.434 56.3597 280.434 51.168C280.434 45.9764 284.659 41.7535 289.852 41.7535C295.045 41.7535 299.269 45.9764 299.269 51.168C299.269 56.3597 295.045 60.5826 289.852 60.5826ZM289.852 41.8591C284.72 41.8591 280.545 46.0336 280.545 51.1636C280.545 56.2936 284.72 60.4681 289.852 60.4681C294.983 60.4681 299.159 56.2936 299.159 51.1636C299.159 46.0336 294.983 41.8591 289.852 41.8591Z" fill="#4294EA" stroke="#4294EA" stroke-miterlimit="10"/>
<path d="M279.84 75.7833C277.461 69.4291 272.748 64.3784 266.564 61.569C265.573 61.1198 264.512 60.7191 263.411 60.3844L263.362 60.3712L257.394 73.4671L257.469 73.4759C258.587 73.6212 259.68 73.9294 260.715 74.4006C263.468 75.6512 265.564 77.9013 266.626 80.7284C267.688 83.5598 267.577 86.6334 266.326 89.3855C263.737 95.066 257.011 97.5847 251.329 94.9999C250.346 94.5552 249.443 93.9695 248.629 93.2694L248.659 93.2253C248.659 93.2253 246.602 91.737 244.686 88.6281C242.92 85.7615 240.894 80.8737 241.304 73.8898C242.083 60.4989 264.08 21.4756 264.3 21.0837L264.349 21H247.717L247.704 21.0176C243.03 26.861 239.63 34.2368 236.533 41.0049C232.759 49.2525 229.103 58.0858 227.733 67.0865C225.592 81.1555 229.217 99.1568 242.744 106.462L242.784 106.387C243.678 106.933 244.585 107.418 245.484 107.827C248.889 109.373 252.456 110.108 255.971 110.108C265.639 110.108 274.898 104.573 279.162 95.2201C281.976 89.0421 282.218 82.1375 279.84 75.7833Z" fill="#EFEFEF" stroke="#4294EA" stroke-miterlimit="10"/>
<path d="M394.889 44.1401C393.259 36.4913 389.462 31.6916 389.427 31.6432H389.418C388.797 30.7845 388.137 29.9698 387.454 29.2345C377.909 18.9128 361.735 18.2699 351.402 27.8122C346.394 32.4314 343.491 38.7239 343.218 45.5272C342.949 52.3305 345.346 58.83 349.97 63.8323C350.71 64.6338 351.534 65.4132 352.428 66.1529L352.468 66.1838L363.021 56.4433L363.079 56.3905L363.013 56.3509C362.035 55.7828 361.145 55.0695 360.37 54.2328C358.313 52.0047 357.243 49.1116 357.366 46.082C357.485 43.0525 358.78 40.2519 361.009 38.1955C365.611 33.9462 372.813 34.2324 377.063 38.8296C377.808 39.6354 378.424 40.5381 378.905 41.5113L378.887 41.5289L378.839 41.5597C378.852 41.5817 380.16 43.7306 380.724 47.337C381.243 50.666 381.213 55.9546 378.129 62.2383C376.425 65.7126 371.042 72.7713 355.058 86.6906C345.495 95.0175 336.554 101.944 336.461 102.015L336.387 102.072L351.697 108.505L351.724 108.514L351.746 108.501C351.79 108.479 356.304 106.044 362.92 100.663C369.025 95.6957 378.222 87.1354 387.361 74.5371C391.308 69.0944 393.876 63.4536 394.99 57.7688C395.88 53.22 395.845 48.636 394.889 44.1445V44.1401Z" fill="#EFEFEF" stroke="#4294EA" stroke-miterlimit="10"/>
<path d="M76.7684 100.02C56.5732 100.02 40.2055 116.387 40.2055 136.573C40.2055 156.758 56.5776 173.126 76.7684 173.126C96.9593 173.126 113.331 156.758 113.331 136.573C113.331 116.387 96.9593 100.02 76.7684 100.02ZM76.7684 158.59C64.6072 158.59 54.7452 148.731 54.7452 136.573C54.7452 124.415 64.6072 114.556 76.7684 114.556C88.9296 114.556 98.7916 124.415 98.7916 136.573C98.7916 148.731 88.9296 158.59 76.7684 158.59Z" fill="#EFEFEF" stroke="#4294EA" stroke-miterlimit="10"/>
<path d="M76.7684 173.183C66.9857 173.183 57.7933 169.374 50.8736 162.461C43.9583 155.547 40.1483 146.353 40.1483 136.573C40.1483 126.793 43.9583 117.603 50.8736 110.685C57.7889 103.772 66.9857 99.9626 76.7684 99.9626C86.5511 99.9626 95.7436 103.772 102.663 110.685C109.583 117.598 113.389 126.793 113.389 136.573C113.389 146.353 109.579 155.543 102.663 162.461C95.748 169.374 86.5511 173.183 76.7684 173.183ZM76.7684 100.073C67.0166 100.073 57.8505 103.868 50.9529 110.764C44.0552 117.66 40.2584 126.824 40.2584 136.573C40.2584 146.322 44.0552 155.486 50.9529 162.381C57.8505 169.277 67.0166 173.073 76.7684 173.073C86.5203 173.073 95.6864 169.277 102.584 162.381C109.482 155.486 113.278 146.322 113.278 136.573C113.278 126.824 109.482 117.66 102.584 110.764C95.6864 103.868 86.5203 100.073 76.7684 100.073ZM76.7684 158.647C64.594 158.647 54.688 148.744 54.688 136.577C54.688 124.41 64.594 114.503 76.7684 114.503C88.9429 114.503 98.8489 124.406 98.8489 136.577C98.8489 148.748 88.9429 158.647 76.7684 158.647ZM76.7684 114.608C64.6557 114.608 54.7981 124.459 54.7981 136.573C54.7981 148.687 64.6513 158.537 76.7684 158.537C88.8856 158.537 98.7388 148.687 98.7388 136.573C98.7388 124.459 88.8856 114.608 76.7684 114.608Z" fill="#4294EA" stroke="#4294EA" stroke-miterlimit="10"/>
<path d="M378.949 60.5253C384.12 60.5253 388.313 56.334 388.313 51.1636C388.313 45.9933 384.12 41.8019 378.949 41.8019C373.777 41.8019 369.584 45.9933 369.584 51.1636C369.584 56.334 373.777 60.5253 378.949 60.5253Z" fill="#EFEFEF" stroke="#4294EA" stroke-miterlimit="10"/>
<path d="M378.949 60.5826C373.756 60.5826 369.531 56.3597 369.531 51.168C369.531 45.9764 373.756 41.7535 378.949 41.7535C384.142 41.7535 388.366 45.9764 388.366 51.168C388.366 56.3597 384.142 60.5826 378.949 60.5826ZM378.949 41.8591C373.817 41.8591 369.642 46.0336 369.642 51.1636C369.642 56.2936 373.817 60.4681 378.949 60.4681C384.08 60.4681 388.256 56.2936 388.256 51.1636C388.256 46.0336 384.08 41.8591 378.949 41.8591Z" fill="#4294EA" stroke="#4294EA" stroke-miterlimit="10"/>
<path d="M398.153 60.5253C403.325 60.5253 407.517 56.334 407.517 51.1636C407.517 45.9933 403.325 41.8019 398.153 41.8019C392.981 41.8019 388.789 45.9933 388.789 51.1636C388.789 56.334 392.981 60.5253 398.153 60.5253Z" fill="#EFEFEF" stroke="#4294EA" stroke-miterlimit="10"/>
<path d="M398.153 60.5826C392.96 60.5826 388.736 56.3597 388.736 51.168C388.736 45.9764 392.96 41.7535 398.153 41.7535C403.346 41.7535 407.57 45.9764 407.57 51.168C407.57 56.3597 403.346 60.5826 398.153 60.5826ZM398.153 41.8591C393.021 41.8591 388.846 46.0336 388.846 51.1636C388.846 56.2936 393.021 60.4681 398.153 60.4681C403.284 60.4681 407.46 56.2936 407.46 51.1636C407.46 46.0336 403.284 41.8591 398.153 41.8591Z" fill="#4294EA" stroke="#4294EA" stroke-miterlimit="10"/>
<path d="M390.898 211.784C390.925 211.264 390.938 210.74 390.938 210.22V210.163H390.18" fill="#EFEFEF"/>
<path d="M390.898 211.784C390.925 211.264 390.938 210.74 390.938 210.22V210.163H390.18" stroke="#4294EA" stroke-miterlimit="10"/>
<path d="M22.6442 58.4117C22.3888 58.1739 22.1201 57.9449 21.8338 57.7336L21.7149 58.3192C21.0145 58.2752 20.3054 58.3148 19.5962 58.4381C17.112 58.8652 14.9405 60.2347 13.487 62.2911C12.0291 64.3519 11.4653 66.8531 11.8881 69.3366C12.1039 70.5784 12.5532 71.7409 13.2051 72.7757C13.3725 73.0399 13.5531 73.2997 13.7469 73.5463C14.3063 74.2685 14.9802 74.907 15.7466 75.4486C16.4381 75.9374 17.1913 76.3337 17.9841 76.6199L17.9929 76.5671C17.2265 76.2853 16.4777 75.8978 15.7774 75.4046C15.0022 74.8541 14.3327 74.2112 13.7821 73.4935C11.3111 70.3186 11.0865 65.7786 13.531 62.3219C15.4647 59.5874 18.592 58.2003 21.706 58.3676C22.0452 58.3853 22.38 58.4205 22.7191 58.4777C22.6927 58.4557 22.6707 58.4337 22.6442 58.4117ZM11.4829 86.2679L11.5137 86.2238L11.5093 86.2194L11.4829 86.2679Z" fill="#EFEFEF" stroke="#4294EA" stroke-miterlimit="10"/>
<path d="M35.4661 52.3658C34.7658 51.7184 34.039 51.1284 33.3079 50.6132C23.8599 43.9332 10.7429 46.1877 4.06107 55.6287C-2.61636 65.0741 -0.365592 78.192 9.08236 84.8676C9.81353 85.3872 10.6152 85.876 11.4565 86.3163L11.4741 86.3251C11.4741 86.3251 11.4917 86.3339 11.5005 86.3383L11.5313 86.2943L11.5622 86.2503C11.5357 86.237 11.5225 86.2282 11.5137 86.2238C11.5137 86.2194 11.5093 86.2194 11.5093 86.2194L11.4829 86.2679C10.6724 85.8407 9.8796 85.3652 9.11319 84.8235C-0.321546 78.1523 -2.56351 65.0961 4.10511 55.6639C10.7781 46.2274 23.8379 43.986 33.277 50.6572C34.0434 51.1988 34.757 51.7889 35.4265 52.4098L28.6345 62.0137C28.0752 61.2915 27.4012 60.6354 26.6128 60.0762C25.4103 59.2263 24.0757 58.6979 22.7191 58.4777C22.6927 58.4557 22.6707 58.4337 22.6442 58.4117C22.3359 58.3632 22.0276 58.3324 21.7149 58.3192C21.0145 58.2752 20.3054 58.3148 19.5962 58.4381C17.112 58.8652 14.9405 60.2347 13.487 62.2911C12.0291 64.3519 11.4653 66.8531 11.8881 69.3366C12.1039 70.5784 12.5532 71.7409 13.2051 72.7757C13.3725 73.0399 13.5531 73.2997 13.7469 73.5463C14.3063 74.2685 14.9802 74.907 15.7466 75.4486C16.4381 75.9374 17.1913 76.3337 17.9841 76.6199L17.9929 76.5671C18.0854 76.5979 18.1823 76.6287 18.2748 76.6596L18.2528 76.7124C18.2528 76.7124 18.2704 76.7212 18.2969 76.73L18.3277 76.6816L18.3585 76.6375L18.3189 76.6199C18.3013 76.6155 18.2925 76.6111 18.2925 76.6111H18.2881C18.1911 76.5759 18.0986 76.5451 18.0017 76.5098C17.2265 76.228 16.4866 75.8405 15.8038 75.3561C15.0286 74.8101 14.3635 74.1628 13.8129 73.4494C11.3684 70.2922 11.1481 65.7786 13.5707 62.3572C15.011 60.3184 17.1561 58.9665 19.6138 58.5482C20.3098 58.4293 21.0057 58.3897 21.6884 58.4249C22.0584 58.4425 22.424 58.4821 22.7852 58.5482C24.1374 58.7772 25.428 59.31 26.5776 60.1246C27.344 60.6618 28.0179 61.3136 28.5861 62.0489L28.6301 62.1062L35.4705 52.4406L35.497 52.401L35.4617 52.3658H35.4661Z" fill="#EFEFEF" stroke="#4294EA" stroke-miterlimit="10"/>
<path d="M75.4294 35.9805L82.631 21.1101H19.0985V35.9805H62.33C62.33 35.9805 62.308 36.0158 62.2992 36.0334C62.286 36.051 62.2772 36.0686 62.264 36.0906C61.1452 38.0193 57.0841 44.9415 52.2522 52.3437C42.769 66.8619 37.6464 72.0227 35.0169 73.8017C30.251 77.0206 25.9521 77.6371 23.1816 77.5931C20.4287 77.549 18.6008 76.8533 18.2969 76.73C18.2704 76.7212 18.2528 76.7124 18.2528 76.7124L18.2748 76.6595C18.1823 76.6287 18.0854 76.5979 17.9929 76.5671L17.9841 76.6199C17.1913 76.3337 16.4381 75.9374 15.7466 75.4486C14.9802 74.907 14.3063 74.2685 13.7469 73.5463C13.5531 73.2997 13.3725 73.0399 13.2051 72.7757C12.5532 71.7409 12.1039 70.5784 11.8881 69.3366C11.4653 66.8531 12.0291 64.3519 13.487 62.2911C14.9405 60.2347 17.112 58.8652 19.5962 58.4381C20.3054 58.3148 21.0145 58.2752 21.7149 58.3192L22.0144 58.3676C22.5209 58.4029 22.0232 58.3632 22.5341 58.4381C22.5605 58.4601 22.6927 58.4557 22.7191 58.4777C24.0757 58.6979 25.4103 59.2263 26.6128 60.0762C27.4012 60.6354 28.0752 61.2915 28.6345 62.0137L35.4265 52.4098C34.757 51.7889 34.0434 51.1988 33.277 50.6572C23.8379 43.986 10.7781 46.2274 4.10511 55.6639C-2.56351 65.0961 -0.321551 78.1523 9.11318 84.8235C9.87959 85.3652 10.6724 85.8407 11.4829 86.2679L11.5093 86.2194C11.5093 86.2194 11.5137 86.2194 11.5137 86.2238C11.5225 86.2282 11.5357 86.237 11.5622 86.2503C12.0687 86.5365 16.2267 88.7954 22.2082 89.2226C25.9389 89.4868 29.6432 89.0024 33.211 87.7738C37.6729 86.237 41.941 83.5333 45.8919 79.7332C48.0546 77.6591 50.1248 75.4354 52.0848 73.15C55.5997 69.0548 58.7799 64.7438 61.524 60.675C61.5372 60.6574 61.5504 60.6398 61.5592 60.6222C61.5724 60.609 61.5812 60.5914 61.59 60.5782C61.6077 60.5826 61.6297 60.587 61.6473 60.5958C61.6649 60.6002 61.6781 60.6046 61.6958 60.609C67.3337 62.344 71.4432 67.6017 71.4432 73.8017C71.4432 81.4153 65.2503 87.6065 57.6391 87.6065C55.7319 87.6065 53.8819 87.219 52.1377 86.4616V99.2712C53.9524 99.6587 55.8024 99.8569 57.6391 99.8569C72.007 99.8569 83.7013 88.1702 83.7013 73.8017C83.7013 63.2246 77.3631 54.1007 68.2807 50.0231C68.2631 50.0143 68.2455 50.0055 68.2278 50.0011C68.2146 49.9879 68.197 49.9835 68.1794 49.9791C64.9552 48.5436 61.3874 47.7465 57.6391 47.7465V47.6365C61.4095 47.6365 64.9948 48.4379 68.2366 49.8822C72.4871 42.4624 75.055 36.8128 75.381 36.0906" fill="#EFEFEF"/>
<path d="M75.4294 35.9805L82.631 21.1101H19.0985V35.9805H62.33C62.33 35.9805 62.308 36.0158 62.2992 36.0334C62.286 36.051 62.2772 36.0686 62.264 36.0906C61.1452 38.0193 57.0841 44.9415 52.2522 52.3437C42.769 66.8619 37.6464 72.0227 35.0169 73.8017C30.251 77.0206 25.9521 77.6371 23.1816 77.5931C20.4287 77.5491 18.6008 76.8533 18.2969 76.73C18.2704 76.7212 18.2528 76.7124 18.2528 76.7124L18.2748 76.6595C18.1823 76.6287 18.0854 76.5979 17.9929 76.5671L17.9841 76.6199C17.1913 76.3337 16.4381 75.9374 15.7466 75.4486C14.9802 74.907 14.3063 74.2685 13.7469 73.5463C13.5531 73.2997 13.3725 73.0399 13.2051 72.7757C12.5532 71.7409 12.1039 70.5784 11.8881 69.3366C11.4653 66.8531 12.0291 64.3519 13.487 62.2911C14.9405 60.2347 17.112 58.8652 19.5962 58.4381C20.3054 58.3148 21.0145 58.2752 21.7149 58.3192L22.0144 58.3676C22.5209 58.4029 22.0232 58.3632 22.5341 58.4381C22.5605 58.4601 22.6927 58.4557 22.7191 58.4777C24.0757 58.6979 25.4103 59.2263 26.6128 60.0762C27.4012 60.6354 28.0752 61.2915 28.6345 62.0137L35.4265 52.4098C34.757 51.7889 34.0434 51.1988 33.277 50.6572C23.8379 43.986 10.7781 46.2274 4.10511 55.6639C-2.56351 65.0961 -0.321551 78.1523 9.11318 84.8235C9.87959 85.3652 10.6724 85.8407 11.4829 86.2679L11.5093 86.2194C11.5093 86.2194 11.5137 86.2194 11.5137 86.2238C11.5225 86.2282 11.5357 86.237 11.5622 86.2503C12.0687 86.5365 16.2267 88.7954 22.2082 89.2226C25.9389 89.4868 29.6432 89.0024 33.211 87.7738C37.6729 86.237 41.941 83.5333 45.8919 79.7332C48.0546 77.6591 50.1248 75.4354 52.0848 73.15C55.5997 69.0548 58.7799 64.7438 61.524 60.675C61.5372 60.6574 61.5504 60.6398 61.5592 60.6222C61.5724 60.609 61.5812 60.5914 61.59 60.5782C61.6077 60.5826 61.6297 60.587 61.6473 60.5958C61.6649 60.6002 61.6781 60.6046 61.6958 60.609C67.3337 62.344 71.4432 67.6017 71.4432 73.8017C71.4432 81.4153 65.2503 87.6065 57.6391 87.6065C55.7319 87.6065 53.8819 87.219 52.1377 86.4616V99.2712C53.9524 99.6587 55.8024 99.8569 57.6391 99.8569C72.007 99.8569 83.7013 88.1702 83.7013 73.8017C83.7013 63.2246 77.3631 54.1007 68.2807 50.0231C68.2631 50.0143 68.2455 50.0055 68.2278 50.0011C68.2146 49.9879 68.197 49.9835 68.1794 49.9791C64.9552 48.5436 61.3874 47.7465 57.6391 47.7465V47.6365C61.4095 47.6365 64.9948 48.4379 68.2366 49.8822C72.4871 42.4624 75.055 36.8128 75.381 36.0906" stroke="#4294EA" stroke-miterlimit="10"/>
<path d="M111.155 20.3615H96.1709V100.249H111.155V20.3615Z" fill="#EFEFEF" stroke="#4294EA" stroke-miterlimit="10"/>
<path d="M111.208 100.302H96.1136V20.3043H111.208V100.302ZM96.2237 100.192H111.098V20.4144H96.2237V100.192Z" fill="#4294EA" stroke="#4294EA" stroke-miterlimit="10"/>
<path d="M95.5146 60.5253C100.686 60.5253 104.879 56.334 104.879 51.1636C104.879 45.9933 100.686 41.8019 95.5146 41.8019C90.3429 41.8019 86.1503 45.9933 86.1503 51.1636C86.1503 56.334 90.3429 60.5253 95.5146 60.5253Z" fill="#EFEFEF" stroke="#4294EA" stroke-miterlimit="10"/>
<path d="M95.5146 60.5826C90.3215 60.5826 86.0975 56.3597 86.0975 51.168C86.0975 45.9764 90.3215 41.7535 95.5146 41.7535C100.708 41.7535 104.932 45.9764 104.932 51.168C104.932 56.3597 100.708 60.5826 95.5146 60.5826ZM95.5146 41.8591C90.3832 41.8591 86.2076 46.0336 86.2076 51.1636C86.2076 56.2936 90.3832 60.4681 95.5146 60.4681C100.646 60.4681 104.822 56.2936 104.822 51.1636C104.822 46.0336 100.646 41.8591 95.5146 41.8591Z" fill="#4294EA" stroke="#4294EA" stroke-miterlimit="10"/>
<path d="M203.631 59.2175C202.177 52.379 198.561 46.7249 193.443 43.3035C191.659 42.1145 189.743 41.203 187.717 40.5821C187.726 40.5645 187.73 40.5513 187.739 40.5381C187.748 40.5161 187.757 40.4985 187.77 40.4809C189.153 37.7067 189.893 36.0334 189.893 36.0334L197.147 21.0573H133.469V36.0334H176.661C174.292 40.1198 157.937 67.9936 149.414 73.7533C140.658 79.6715 133.434 76.959 132.756 76.6816C132.721 76.6684 132.703 76.6596 132.703 76.6596C131.835 76.3777 130.99 75.9594 130.205 75.4046C125.973 72.4102 124.964 66.5536 127.959 62.3219C130.95 58.0902 136.808 57.0862 141.041 60.0762C141.829 60.6354 142.503 61.2915 143.063 62.0137L149.855 52.4098C149.185 51.7889 148.472 51.1988 147.705 50.6572C138.266 43.986 125.206 46.2274 118.533 55.6639C111.865 65.0961 114.107 78.1523 123.541 84.8235C124.308 85.3652 125.101 85.8407 125.911 86.2679C125.911 86.2679 125.929 86.2767 125.959 86.2943C126.968 86.8711 143.543 95.9422 160.36 79.7728C169.257 71.2213 176.657 60.2523 181.823 51.4366C181.832 51.419 181.845 51.4014 181.854 51.3838C181.863 51.3662 181.872 51.353 181.881 51.3398C186.651 52.6916 190.54 56.5798 191.641 61.7583C192.403 65.3647 191.721 69.0504 189.708 72.1416C187.699 75.2328 184.607 77.3597 181 78.1215C179.132 78.5178 177.243 78.5266 175.379 78.1435L178.04 90.6757C179.899 90.6801 181.744 90.4908 183.541 90.1077C197.601 87.1265 206.613 73.2689 203.631 59.2175Z" fill="#EFEFEF" stroke="#4294EA" stroke-miterlimit="10"/>
<path d="M437.438 148.96C425.713 159.585 407.583 159.242 396.268 147.929C384.952 136.617 384.639 119.364 394.497 107.629H375.83C373.698 112.248 372.381 117.145 371.875 122.112L371.531 121.513H371.505V121.566C371.183 127.444 368.721 133.129 364.18 138.462C359.784 143.632 353.622 148.26 345.874 152.227C329.934 160.387 315.068 164.878 292.816 164.878C270.564 164.878 249.527 160.382 233.591 152.227C225.843 148.26 219.681 143.627 215.286 138.462C210.744 133.125 208.282 127.44 207.965 121.566V121.513H191.884V121.57C191.906 127.189 193.245 132.693 195.857 138C193.681 143.323 190.069 147.89 185.352 151.263C180.159 154.975 174.032 156.939 167.623 156.939C159.474 156.939 151.815 153.768 146.053 148.009C140.292 142.249 137.121 134.591 137.121 126.445C137.121 119.694 139.292 113.292 143.406 107.928L143.472 107.84H125.092L125.079 107.871C122.511 113.745 121.207 119.994 121.207 126.445C121.207 138.841 126.034 150.497 134.804 159.259C143.569 168.027 155.228 172.853 167.627 172.853C173.027 172.853 178.317 171.932 183.352 170.123C188.215 168.37 192.729 165.829 196.773 162.566C200.486 159.568 203.693 156.014 206.309 152.077C210.551 156.23 215.642 160.061 221.545 163.531C230.812 168.978 241.594 173.249 253.597 176.235C266.023 179.326 279.219 180.893 292.82 180.893C306.422 180.893 319.623 179.326 332.048 176.235C344.051 173.249 348.667 168.973 357.934 163.531C365.678 158.982 372.029 153.803 376.887 148.101C378.979 152.082 381.693 155.816 385.04 159.162C402.562 176.679 430.747 177.023 448.692 160.197L437.447 148.955L437.438 148.96Z" fill="#EFEFEF" stroke="#4294EA" stroke-miterlimit="10"/>
</g>
<defs>
<clipPath id="clip0_2188_14">
<rect width="449" height="211.792" fill="white"/>
</clipPath>
</defs>
</svg>
