<svg width="111" height="53" viewBox="0 0 111 53" fill="none" xmlns="http://www.w3.org/2000/svg">
<g clip-path="url(#clip0_2188_68)">
<path d="M76.2282 5.03369H72.5238V24.7831H76.2282V5.03369Z" fill="#B5B5B5" stroke="#141414" stroke-width="0.5" stroke-miterlimit="10"/>
<path d="M76.2413 24.7962H72.5096V5.01953H76.2413V24.7962ZM72.5379 24.7689H76.2152V5.04675H72.5379V24.7689Z" fill="#141414" stroke="#141414" stroke-width="0.5" stroke-miterlimit="10"/>
<path d="M103.01 5.03369H99.3053V24.7831H103.01V5.03369Z" fill="#B5B5B5" stroke="#141414" stroke-width="0.5" stroke-miterlimit="10"/>
<path d="M103.024 24.7962H99.2922V5.01953H103.024V24.7962ZM99.3195 24.7689H102.997V5.04675H99.3195V24.7689Z" fill="#141414" stroke="#141414" stroke-width="0.5" stroke-miterlimit="10"/>
<path d="M80.8397 5.03369H77.1353V32.0245H80.8397V5.03369Z" fill="#B5B5B5" stroke="#141414" stroke-width="0.5" stroke-miterlimit="10"/>
<path d="M80.8538 32.0386H77.1222V5.01953H80.8538V32.0375V32.0386ZM77.1494 32.0114H80.8266V5.04675H77.1494V32.0103V32.0114Z" fill="#141414" stroke="#141414" stroke-width="0.5" stroke-miterlimit="10"/>
<path d="M52.5894 24.7831V21.0797H29.1312V24.7831H52.5894Z" fill="#B5B5B5" stroke="#141414" stroke-width="0.5" stroke-miterlimit="10"/>
<path d="M52.6024 24.7962H29.1171V21.0656H52.6024V24.7962ZM29.1443 24.769H52.5752V21.0928H29.1443V24.769Z" fill="#141414" stroke="#141414" stroke-width="0.5" stroke-miterlimit="10"/>
<path d="M13.6515 4.69624C14.9301 4.69624 15.9665 3.66006 15.9665 2.38187C15.9665 1.10368 14.9301 0.0675049 13.6515 0.0675049C12.373 0.0675049 11.3365 1.10368 11.3365 2.38187C11.3365 3.66006 12.373 4.69624 13.6515 4.69624Z" fill="#B5B5B5" stroke="#141414" stroke-width="0.5" stroke-miterlimit="10"/>
<path d="M13.6515 4.71039C12.3677 4.71039 11.3224 3.66642 11.3224 2.38296C11.3224 1.0995 12.3677 0.0544434 13.6515 0.0544434C14.9353 0.0544434 15.9796 1.09841 15.9796 2.38187C15.9796 3.66534 14.9353 4.70931 13.6515 4.70931V4.71039ZM13.6515 0.0816584C12.383 0.0816584 11.3496 1.11365 11.3496 2.38187C11.3496 3.6501 12.3819 4.68209 13.6515 4.68209C14.9212 4.68209 15.9524 3.6501 15.9524 2.38187C15.9524 1.11365 14.9201 0.0816584 13.6515 0.0816584Z" fill="#141414" stroke="#141414" stroke-width="0.5" stroke-miterlimit="10"/>
<path d="M40.8598 4.69624C42.1383 4.69624 43.1748 3.66006 43.1748 2.38187C43.1748 1.10368 42.1383 0.0675049 40.8598 0.0675049C39.5813 0.0675049 38.5448 1.10368 38.5448 2.38187C38.5448 3.66006 39.5813 4.69624 40.8598 4.69624Z" fill="#B5B5B5" stroke="#141414" stroke-width="0.5" stroke-miterlimit="10"/>
<path d="M40.8598 4.71039C39.576 4.71039 38.5306 3.66642 38.5306 2.38296C38.5306 1.0995 39.576 0.0544434 40.8598 0.0544434C42.1436 0.0544434 43.1879 1.09841 43.1879 2.38187C43.1879 3.66534 42.1436 4.70931 40.8598 4.70931V4.71039ZM40.8598 0.0816584C39.5912 0.0816584 38.5579 1.11365 38.5579 2.38187C38.5579 3.6501 39.5901 4.68209 40.8598 4.68209C42.1294 4.68209 43.1606 3.6501 43.1606 2.38187C43.1606 1.11365 42.1284 0.0816584 40.8598 0.0816584Z" fill="#141414" stroke="#141414" stroke-width="0.5" stroke-miterlimit="10"/>
<path d="M40.8598 27.1138C42.1383 27.1138 43.1748 26.0777 43.1748 24.7995C43.1748 23.5213 42.1383 22.4851 40.8598 22.4851C39.5813 22.4851 38.5448 23.5213 38.5448 24.7995C38.5448 26.0777 39.5813 27.1138 40.8598 27.1138Z" fill="#B5B5B5" stroke="#141414" stroke-width="0.5" stroke-miterlimit="10"/>
<path d="M40.8598 27.128C39.576 27.128 38.5306 26.084 38.5306 24.7995C38.5306 23.5149 39.5749 22.472 40.8598 22.472C42.1447 22.472 43.1879 23.516 43.1879 24.7995C43.1879 26.0829 42.1436 27.128 40.8598 27.128ZM40.8598 22.4993C39.5912 22.4993 38.5579 23.5313 38.5579 24.7995C38.5579 26.0677 39.5901 27.1008 40.8598 27.1008C42.1294 27.1008 43.1606 26.0688 43.1606 24.7995C43.1606 23.5302 42.1284 22.4993 40.8598 22.4993Z" fill="#141414" stroke="#141414" stroke-width="0.5" stroke-miterlimit="10"/>
<path d="M71.6562 14.9631C72.9347 14.9631 73.9712 13.9269 73.9712 12.6487C73.9712 11.3705 72.9347 10.3344 71.6562 10.3344C70.3776 10.3344 69.3412 11.3705 69.3412 12.6487C69.3412 13.9269 70.3776 14.9631 71.6562 14.9631Z" fill="#B5B5B5" stroke="#141414" stroke-width="0.5" stroke-miterlimit="10"/>
<path d="M71.6559 14.977C70.3721 14.977 69.3279 13.933 69.3279 12.6496C69.3279 11.3661 70.3721 10.3221 71.6559 10.3221C72.9398 10.3221 73.984 11.3661 73.984 12.6496C73.984 13.933 72.9398 14.977 71.6559 14.977ZM71.6559 10.3483C70.3874 10.3483 69.3551 11.3803 69.3551 12.6485C69.3551 13.9167 70.3874 14.9487 71.6559 14.9487C72.9245 14.9487 73.9568 13.9167 73.9568 12.6485C73.9568 11.3803 72.9245 10.3483 71.6559 10.3483Z" fill="#141414" stroke="#141414" stroke-width="0.5" stroke-miterlimit="10"/>
<path d="M69.1809 18.7348C68.5929 17.164 67.4278 15.9153 65.8989 15.2208C65.6539 15.1098 65.3915 15.0107 65.1193 14.928L65.1073 14.9247L63.6319 18.1622L63.6504 18.1644C63.927 18.2003 64.197 18.2765 64.4529 18.393C65.1335 18.7022 65.6518 19.2584 65.9142 19.9573C66.1766 20.6573 66.1494 21.4171 65.8402 22.0975C65.1999 23.5018 63.5371 24.1245 62.1325 23.4855C61.8896 23.3755 61.6664 23.2308 61.465 23.0577L61.4726 23.0468C61.4726 23.0468 60.9641 22.6788 60.4904 21.9103C60.0538 21.2016 59.5529 19.9933 59.6541 18.2667C59.8469 14.9563 65.2848 5.3091 65.3393 5.21221L65.3512 5.19153H61.2396L61.2363 5.19588C60.081 6.64046 59.2403 8.46387 58.4748 10.137C57.5417 12.176 56.6379 14.3597 56.2992 16.5848C55.77 20.0629 56.6662 24.5131 60.0102 26.3191L60.02 26.3006C60.241 26.4356 60.4654 26.5553 60.6875 26.6566C61.5292 27.0387 62.4112 27.2205 63.2802 27.2205C65.6703 27.2205 67.9591 25.8521 69.0132 23.5399C69.709 22.0126 69.7689 20.3057 69.1809 18.7348Z" fill="#B5B5B5" stroke="#141414" stroke-width="0.5" stroke-miterlimit="10"/>
<path d="M97.6229 10.9122C97.22 9.02126 96.2814 7.83469 96.2727 7.82271H96.2705C96.1169 7.61043 95.9536 7.40904 95.7848 7.22725C93.4252 4.67556 89.4268 4.51663 86.8722 6.87563C85.6341 8.01757 84.9165 9.57318 84.849 11.2551C84.7826 12.937 85.375 14.5437 86.5183 15.7804C86.7012 15.9785 86.9049 16.1712 87.1259 16.3541L87.1357 16.3617L89.7447 13.9537L89.7589 13.9407L89.7425 13.9309C89.5008 13.7904 89.2808 13.6141 89.0892 13.4072C88.5807 12.8564 88.3161 12.1412 88.3466 11.3922C88.376 10.6433 88.6961 9.95093 89.2471 9.44255C90.385 8.39205 92.1653 8.46281 93.2161 9.59931C93.4001 9.79852 93.5526 10.0217 93.6713 10.2623L93.6669 10.2666L93.6549 10.2742C93.6582 10.2797 93.9816 10.8109 94.121 11.7025C94.2495 12.5255 94.2419 13.8329 93.4796 15.3863C93.0582 16.2452 91.7276 17.9903 87.776 21.4313C85.412 23.4899 83.2015 25.2022 83.1787 25.2197L83.1602 25.2338L86.9452 26.8243L86.9517 26.8264L86.9571 26.8232C86.968 26.8177 88.0841 26.2157 89.7197 24.8855C91.2289 23.6575 93.5025 21.5413 95.762 18.4268C96.7376 17.0813 97.3724 15.6868 97.6479 14.2814C97.8679 13.1569 97.8592 12.0236 97.6229 10.9133V10.9122Z" fill="#B5B5B5" stroke="#141414" stroke-width="0.5" stroke-miterlimit="10"/>
<path d="M18.9784 24.7266C13.9858 24.7266 9.93945 28.7729 9.93945 33.763C9.93945 38.7532 13.9869 42.7995 18.9784 42.7995C23.9699 42.7995 28.0173 38.7532 28.0173 33.763C28.0173 28.7729 23.9699 24.7266 18.9784 24.7266ZM18.9784 39.2061C15.9719 39.2061 13.5339 36.7687 13.5339 33.763C13.5339 30.7574 15.9719 28.32 18.9784 28.32C21.9848 28.32 24.4229 30.7574 24.4229 33.763C24.4229 36.7687 21.9848 39.2061 18.9784 39.2061Z" fill="#B5B5B5" stroke="#141414" stroke-width="0.5" stroke-miterlimit="10"/>
<path d="M18.9784 42.8137C16.5599 42.8137 14.2874 41.872 12.5768 40.1629C10.8672 38.4538 9.92529 36.1808 9.92529 33.763C9.92529 31.3453 10.8672 29.0733 12.5768 27.3631C14.2863 25.654 16.5599 24.7124 18.9784 24.7124C21.3968 24.7124 23.6694 25.654 25.38 27.3631C27.0907 29.0723 28.0315 31.3453 28.0315 33.763C28.0315 36.1808 27.0896 38.4527 25.38 40.1629C23.6704 41.872 21.3968 42.8137 18.9784 42.8137ZM18.9784 24.7396C16.5676 24.7396 14.3016 25.678 12.5964 27.3827C10.8911 29.0875 9.95252 31.3529 9.95252 33.763C9.95252 36.1732 10.8911 38.4386 12.5964 40.1433C14.3016 41.8481 16.5676 42.7865 18.9784 42.7865C21.3892 42.7865 23.6552 41.8481 25.3604 40.1433C27.0656 38.4386 28.0043 36.1732 28.0043 33.763C28.0043 31.3529 27.0656 29.0875 25.3604 27.3827C23.6552 25.678 21.3892 24.7396 18.9784 24.7396ZM18.9784 39.2202C15.9687 39.2202 13.5197 36.7719 13.5197 33.7641C13.5197 30.7563 15.9687 28.307 18.9784 28.307C21.9881 28.307 24.437 30.7552 24.437 33.7641C24.437 36.773 21.9881 39.2202 18.9784 39.2202ZM18.9784 28.3331C15.9839 28.3331 13.547 30.7683 13.547 33.763C13.547 36.7578 15.9828 39.193 18.9784 39.193C21.9739 39.193 24.4098 36.7578 24.4098 33.763C24.4098 30.7683 21.9739 28.3331 18.9784 28.3331Z" fill="#141414" stroke="#141414" stroke-width="0.5" stroke-miterlimit="10"/>
<path d="M93.6824 14.9631C94.961 14.9631 95.9974 13.9269 95.9974 12.6487C95.9974 11.3705 94.961 10.3344 93.6824 10.3344C92.4039 10.3344 91.3674 11.3705 91.3674 12.6487C91.3674 13.9269 92.4039 14.9631 93.6824 14.9631Z" fill="#B5B5B5" stroke="#141414" stroke-width="0.5" stroke-miterlimit="10"/>
<path d="M93.6822 14.977C92.3984 14.977 91.3541 13.933 91.3541 12.6496C91.3541 11.3661 92.3984 10.3221 93.6822 10.3221C94.966 10.3221 96.0102 11.3661 96.0102 12.6496C96.0102 13.933 94.966 14.977 93.6822 14.977ZM93.6822 10.3483C92.4136 10.3483 91.3813 11.3803 91.3813 12.6485C91.3813 13.9167 92.4136 14.9487 93.6822 14.9487C94.9508 14.9487 95.983 13.9167 95.983 12.6485C95.983 11.3803 94.9508 10.3483 93.6822 10.3483Z" fill="#141414" stroke="#141414" stroke-width="0.5" stroke-miterlimit="10"/>
<path d="M98.43 14.9631C99.7085 14.9631 100.745 13.9269 100.745 12.6487C100.745 11.3705 99.7085 10.3344 98.43 10.3344C97.1515 10.3344 96.115 11.3705 96.115 12.6487C96.115 13.9269 97.1515 14.9631 98.43 14.9631Z" fill="#B5B5B5" stroke="#141414" stroke-width="0.5" stroke-miterlimit="10"/>
<path d="M98.4297 14.977C97.1459 14.977 96.1017 13.933 96.1017 12.6496C96.1017 11.3661 97.1459 10.3221 98.4297 10.3221C99.7136 10.3221 100.758 11.3661 100.758 12.6496C100.758 13.933 99.7136 14.977 98.4297 14.977ZM98.4297 10.3483C97.1612 10.3483 96.1289 11.3803 96.1289 12.6485C96.1289 13.9167 97.1612 14.9487 98.4297 14.9487C99.6983 14.9487 100.731 13.9167 100.731 12.6485C100.731 11.3803 99.6983 10.3483 98.4297 10.3483Z" fill="#141414" stroke="#141414" stroke-width="0.5" stroke-miterlimit="10"/>
<path d="M96.6363 52.3563C96.6429 52.2278 96.6461 52.0983 96.6461 51.9698V51.9557H96.4589" fill="#B5B5B5"/>
<path d="M96.6363 52.3563C96.6429 52.2278 96.6461 52.0983 96.6461 51.9698V51.9557H96.4589" stroke="#141414" stroke-width="0.5" stroke-miterlimit="10"/>
<path d="M5.59801 14.4403C5.53485 14.3816 5.46843 14.325 5.39765 14.2727L5.36825 14.4175C5.19512 14.4066 5.01981 14.4164 4.84449 14.4469C4.23036 14.5525 3.69353 14.891 3.33419 15.3994C2.97377 15.9089 2.83439 16.5272 2.93892 17.1412C2.99228 17.4482 3.10335 17.7355 3.2645 17.9914C3.30588 18.0567 3.35053 18.1209 3.39844 18.1819C3.53673 18.3604 3.70333 18.5183 3.8928 18.6522C4.06375 18.773 4.24996 18.871 4.44596 18.9417L4.44814 18.9287C4.25867 18.859 4.07355 18.7632 3.90042 18.6413C3.70877 18.5052 3.54326 18.3463 3.40715 18.1688C2.79628 17.3839 2.74074 16.2616 3.34508 15.407C3.82311 14.731 4.59623 14.3881 5.36608 14.4295C5.44992 14.4338 5.53268 14.4425 5.61652 14.4567C5.60999 14.4512 5.60454 14.4458 5.59801 14.4403ZM2.83875 21.3268L2.84637 21.316L2.84528 21.3149L2.83875 21.3268Z" fill="#B5B5B5" stroke="#141414" stroke-width="0.5" stroke-miterlimit="10"/>
<path d="M8.76781 12.9457C8.59468 12.7857 8.41501 12.6398 8.23425 12.5124C5.89857 10.861 2.65583 11.4184 1.00397 13.7524C-0.646794 16.0874 -0.0903676 19.3303 2.24532 20.9807C2.42607 21.1091 2.62425 21.23 2.83223 21.3388L2.83659 21.341C2.83659 21.341 2.84094 21.3432 2.84312 21.3443L2.85074 21.3334L2.85837 21.3225C2.85183 21.3192 2.84857 21.317 2.84639 21.316C2.84639 21.3149 2.8453 21.3149 2.8453 21.3149L2.83877 21.3268C2.63841 21.2213 2.44241 21.1037 2.25294 20.9698C-0.0794786 19.3206 -0.633727 16.0928 1.01486 13.7611C2.66454 11.4282 5.89312 10.8741 8.22663 12.5233C8.4161 12.6572 8.5925 12.8031 8.75801 12.9566L7.07893 15.3308C6.94064 15.1523 6.77404 14.9901 6.57913 14.8518C6.28186 14.6417 5.95192 14.5111 5.61654 14.4567C5.61001 14.4512 5.60456 14.4458 5.59803 14.4403C5.52181 14.4284 5.44559 14.4208 5.36827 14.4175C5.19514 14.4066 5.01983 14.4164 4.84451 14.4469C4.23038 14.5525 3.69355 14.891 3.33421 15.3994C2.97379 15.9089 2.83441 16.5272 2.93894 17.1412C2.9923 17.4482 3.10337 17.7355 3.26452 17.9914C3.3059 18.0567 3.35055 18.1209 3.39846 18.1819C3.53675 18.3604 3.70335 18.5183 3.89282 18.6521C4.06378 18.773 4.24998 18.871 4.44598 18.9417L4.44816 18.9287C4.47102 18.9363 4.49498 18.9439 4.51785 18.9515L4.5124 18.9646C4.5124 18.9646 4.51676 18.9668 4.52329 18.9689L4.53091 18.957L4.53853 18.9461L4.52873 18.9417C4.52438 18.9406 4.5222 18.9395 4.5222 18.9395H4.52111C4.49716 18.9308 4.47429 18.9232 4.45033 18.9145C4.25869 18.8448 4.07575 18.749 3.90697 18.6293C3.71533 18.4943 3.5509 18.3343 3.41479 18.1579C2.81045 17.3774 2.75601 16.2616 3.3549 15.4157C3.71097 14.9117 4.24127 14.5775 4.84887 14.4741C5.02092 14.4447 5.19296 14.4349 5.36174 14.4436C5.45321 14.448 5.54359 14.4578 5.63288 14.4741C5.96717 14.5307 6.28621 14.6624 6.57042 14.8638C6.75988 14.9966 6.92649 15.1577 7.06695 15.3395L7.07784 15.3537L8.7689 12.9642L8.77543 12.9544L8.76672 12.9457H8.76781Z" fill="#B5B5B5" stroke="#141414" stroke-width="0.5" stroke-miterlimit="10"/>
<path d="M18.6476 8.89496L20.4279 5.21875H4.72166V8.89496H15.4092C15.4092 8.89496 15.4037 8.90367 15.4016 8.90802C15.3983 8.91238 15.3961 8.91673 15.3929 8.92217C15.1163 9.39898 14.1123 11.1103 12.9178 12.9402C10.5734 16.5293 9.30701 17.8052 8.65694 18.245C7.47875 19.0407 6.41599 19.1931 5.73107 19.1822C5.05051 19.1714 4.59862 18.9994 4.52348 18.9689C4.51695 18.9667 4.5126 18.9645 4.5126 18.9645L4.51804 18.9515C4.49517 18.9438 4.47122 18.9362 4.44835 18.9286L4.44617 18.9417C4.25017 18.8709 4.06397 18.7729 3.89301 18.6521C3.70354 18.5182 3.53694 18.3604 3.39865 18.1818C3.35074 18.1209 3.3061 18.0566 3.26472 17.9913C3.10356 17.7355 2.99249 17.4481 2.93914 17.1411C2.8346 16.5271 2.97398 15.9088 3.33441 15.3994C3.69374 14.891 4.23057 14.5524 4.84471 14.4468C5.02002 14.4163 5.19533 14.4066 5.36847 14.4174L5.44251 14.4294C5.56774 14.4381 5.44469 14.4283 5.571 14.4468C5.57754 14.4523 5.6102 14.4512 5.61674 14.4566C5.95212 14.5111 6.28205 14.6417 6.57932 14.8518C6.77423 14.99 6.94084 15.1522 7.07913 15.3308L8.75821 12.9565C8.59269 12.803 8.41629 12.6572 8.22682 12.5233C5.89332 10.874 2.66474 11.4281 1.01506 13.761C-0.633533 16.0928 -0.0792839 19.3205 2.25313 20.9697C2.4426 21.1036 2.6386 21.2212 2.83896 21.3268L2.84549 21.3148C2.84549 21.3148 2.84658 21.3148 2.84658 21.3159C2.84876 21.317 2.85203 21.3192 2.85856 21.3224C2.98378 21.3932 4.0117 21.9517 5.49042 22.0572C6.41272 22.1226 7.32848 22.0028 8.21049 21.6991C9.31354 21.3192 10.3687 20.6508 11.3454 19.7113C11.8801 19.1986 12.3919 18.6488 12.8764 18.0838C13.7454 17.0714 14.5315 16.0057 15.2099 14.9998C15.2132 14.9955 15.2165 14.9911 15.2186 14.9868C15.2219 14.9835 15.2241 14.9792 15.2263 14.9759C15.2306 14.977 15.2361 14.9781 15.2404 14.9802C15.2448 14.9813 15.248 14.9824 15.2524 14.9835C16.6462 15.4124 17.6621 16.7122 17.6621 18.245C17.6621 20.1272 16.1311 21.6577 14.2495 21.6577C13.778 21.6577 13.3207 21.5619 12.8895 21.3747V24.5414C13.3381 24.6372 13.7954 24.6862 14.2495 24.6862C17.8015 24.6862 20.6925 21.7971 20.6925 18.245C20.6925 15.6301 19.1256 13.3746 16.8803 12.3665C16.8759 12.3643 16.8716 12.3622 16.8672 12.3611C16.864 12.3578 16.8596 12.3567 16.8552 12.3556C16.0582 12.0007 15.1762 11.8037 14.2495 11.8037V11.7765C15.1816 11.7765 16.068 11.9746 16.8694 12.3317C17.9202 10.4974 18.555 9.1007 18.6356 8.92217" fill="#B5B5B5"/>
<path d="M18.6476 8.89496L20.4279 5.21875H4.72166V8.89496H15.4092C15.4092 8.89496 15.4037 8.90367 15.4016 8.90802C15.3983 8.91238 15.3961 8.91673 15.3929 8.92217C15.1163 9.39898 14.1123 11.1103 12.9178 12.9402C10.5734 16.5293 9.30701 17.8052 8.65694 18.245C7.47875 19.0407 6.41599 19.1931 5.73107 19.1822C5.05051 19.1714 4.59862 18.9994 4.52348 18.9689C4.51695 18.9667 4.51259 18.9645 4.51259 18.9645L4.51804 18.9515C4.49517 18.9438 4.47122 18.9362 4.44835 18.9286L4.44617 18.9417C4.25017 18.8709 4.06397 18.7729 3.89301 18.6521C3.70354 18.5182 3.53694 18.3604 3.39865 18.1818C3.35074 18.1209 3.3061 18.0566 3.26472 17.9913C3.10356 17.7355 2.99249 17.4481 2.93914 17.1411C2.8346 16.5271 2.97398 15.9088 3.33441 15.3994C3.69374 14.891 4.23057 14.5524 4.84471 14.4468C5.02002 14.4163 5.19533 14.4066 5.36847 14.4174L5.44251 14.4294C5.56774 14.4381 5.44469 14.4283 5.571 14.4468C5.57754 14.4523 5.6102 14.4512 5.61674 14.4566C5.95212 14.5111 6.28205 14.6417 6.57932 14.8518C6.77423 14.99 6.94084 15.1522 7.07913 15.3308L8.75821 12.9565C8.59269 12.803 8.41629 12.6572 8.22682 12.5233C5.89332 10.874 2.66474 11.4281 1.01506 13.761C-0.633533 16.0928 -0.0792839 19.3205 2.25313 20.9697C2.4426 21.1036 2.6386 21.2212 2.83896 21.3268L2.84549 21.3148C2.84549 21.3148 2.84658 21.3148 2.84658 21.3159C2.84876 21.317 2.85203 21.3192 2.85856 21.3224C2.98378 21.3932 4.0117 21.9517 5.49042 22.0572C6.41272 22.1226 7.32848 22.0028 8.21049 21.6991C9.31354 21.3192 10.3687 20.6508 11.3454 19.7113C11.8801 19.1986 12.3919 18.6488 12.8764 18.0838C13.7454 17.0714 14.5315 16.0057 15.2099 14.9998C15.2132 14.9955 15.2165 14.9911 15.2186 14.9868C15.2219 14.9835 15.2241 14.9792 15.2263 14.9759C15.2306 14.977 15.2361 14.9781 15.2404 14.9802C15.2448 14.9813 15.248 14.9824 15.2524 14.9835C16.6462 15.4124 17.6621 16.7122 17.6621 18.245C17.6621 20.1272 16.1311 21.6577 14.2495 21.6577C13.778 21.6577 13.3207 21.5619 12.8895 21.3747V24.5414C13.3381 24.6372 13.7954 24.6862 14.2495 24.6862C17.8015 24.6862 20.6925 21.7971 20.6925 18.245C20.6925 15.6301 19.1256 13.3746 16.8803 12.3665C16.8759 12.3643 16.8716 12.3622 16.8672 12.3611C16.864 12.3578 16.8596 12.3567 16.8552 12.3556C16.0582 12.0007 15.1762 11.8037 14.2495 11.8037V11.7765C15.1816 11.7765 16.068 11.9746 16.8694 12.3317C17.9202 10.4974 18.555 9.1007 18.6356 8.92217" stroke="#141414" stroke-width="0.5" stroke-miterlimit="10"/>
<path d="M27.4795 5.03369H23.775V24.7831H27.4795V5.03369Z" fill="#B5B5B5" stroke="#141414" stroke-width="0.5" stroke-miterlimit="10"/>
<path d="M27.4925 24.7962H23.7609V5.01953H27.4925V24.7962ZM23.7881 24.7689H27.4653V5.04675H23.7881V24.7689Z" fill="#141414" stroke="#141414" stroke-width="0.5" stroke-miterlimit="10"/>
<path d="M23.613 14.9631C24.8915 14.9631 25.928 13.9269 25.928 12.6487C25.928 11.3705 24.8915 10.3344 23.613 10.3344C22.3344 10.3344 21.298 11.3705 21.298 12.6487C21.298 13.9269 22.3344 14.9631 23.613 14.9631Z" fill="#B5B5B5" stroke="#141414" stroke-width="0.5" stroke-miterlimit="10"/>
<path d="M23.6127 14.977C22.3289 14.977 21.2847 13.933 21.2847 12.6496C21.2847 11.3661 22.3289 10.3221 23.6127 10.3221C24.8965 10.3221 25.9408 11.3661 25.9408 12.6496C25.9408 13.933 24.8965 14.977 23.6127 14.977ZM23.6127 10.3483C22.3442 10.3483 21.3119 11.3803 21.3119 12.6485C21.3119 13.9167 22.3442 14.9487 23.6127 14.9487C24.8813 14.9487 25.9136 13.9167 25.9136 12.6485C25.9136 11.3803 24.8813 10.3483 23.6127 10.3483Z" fill="#141414" stroke="#141414" stroke-width="0.5" stroke-miterlimit="10"/>
<path d="M50.3408 14.6395C49.9814 12.9489 49.0874 11.5511 47.8221 10.7053C47.3811 10.4114 46.9075 10.186 46.4066 10.0326C46.4088 10.0282 46.4098 10.0249 46.412 10.0217C46.4142 10.0162 46.4164 10.0119 46.4196 10.0075C46.7616 9.32169 46.9445 8.90802 46.9445 8.90802L48.7379 5.20569H32.9957V8.90802H43.6734C43.0876 9.91825 39.0445 16.8091 36.9375 18.233C34.7728 19.6961 32.987 19.0255 32.8193 18.9569C32.8106 18.9536 32.8062 18.9515 32.8062 18.9515C32.5917 18.8818 32.3827 18.7784 32.1888 18.6412C31.1424 17.901 30.8931 16.4531 31.6335 15.407C32.3729 14.3608 33.8211 14.1126 34.8675 14.8518C35.0624 14.99 35.229 15.1522 35.3673 15.3308L37.0464 12.9565C36.8809 12.803 36.7045 12.6572 36.515 12.5233C34.1815 10.874 30.9529 11.4281 29.3033 13.761C27.6547 16.0928 28.2089 19.3205 30.5413 20.9697C30.7308 21.1036 30.9268 21.2212 31.1272 21.3268C31.1272 21.3268 31.1315 21.329 31.1391 21.3333C31.3885 21.4759 35.486 23.7185 39.6434 19.7211C41.843 17.607 43.6724 14.8953 44.9496 12.716C44.9518 12.7116 44.9551 12.7072 44.9573 12.7029C44.9594 12.6985 44.9616 12.6953 44.9638 12.692C46.1431 13.0262 47.1046 13.9874 47.3768 15.2676C47.5652 16.1592 47.3964 17.0704 46.8988 17.8346C46.4022 18.5988 45.6378 19.1246 44.746 19.3129C44.2843 19.4109 43.8172 19.413 43.3566 19.3183L44.0143 22.4165C44.4738 22.4176 44.93 22.3708 45.3743 22.2761C48.8501 21.5391 51.0779 18.1132 50.3408 14.6395Z" fill="#B5B5B5" stroke="#141414" stroke-width="0.5" stroke-miterlimit="10"/>
<path d="M108.142 36.8253C105.243 39.4521 100.761 39.3672 97.9637 36.5706C95.1663 33.7739 95.089 29.5088 97.5259 26.6077H92.9112C92.3842 27.7496 92.0586 28.9601 91.9334 30.1881L91.8484 30.04H91.8419V30.0531C91.7624 31.5064 91.1537 32.9118 90.0311 34.2301C88.9443 35.5081 87.421 36.6522 85.5056 37.633C81.5649 39.6502 77.8899 40.7606 72.3888 40.7606C66.8876 40.7606 61.6871 39.6491 57.7474 37.633C55.8321 36.6522 54.3087 35.507 53.222 34.2301C52.0993 32.9107 51.4906 31.5053 51.4122 30.0531V30.04H47.4367V30.0542C47.4421 31.4432 47.7731 32.804 48.4189 34.1158C47.8809 35.4319 46.9881 36.5608 45.8218 37.3946C44.538 38.3123 43.0234 38.7978 41.439 38.7978C39.4246 38.7978 37.531 38.014 36.1067 36.5901C34.6824 35.1663 33.8984 33.2732 33.8984 31.2593C33.8984 29.5904 34.4352 28.0076 35.4523 26.6817L35.4686 26.6599H30.9246L30.9214 26.6675C30.2865 28.1197 29.9642 29.6645 29.9642 31.2593C29.9642 34.3237 31.1577 37.2052 33.3257 39.3715C35.4926 41.5389 38.3749 42.732 41.4401 42.732C42.7751 42.732 44.0829 42.5045 45.3275 42.0571C46.5296 41.6238 47.6457 40.9957 48.6454 40.1891C49.5633 39.4477 50.356 38.5692 51.0028 37.596C52.0514 38.6226 53.3102 39.5697 54.7693 40.4275C57.0604 41.7741 59.726 42.83 62.6932 43.5681C65.765 44.3323 69.0273 44.7198 72.3898 44.7198C75.7524 44.7198 79.0158 44.3323 82.0876 43.5681C85.0548 42.83 86.196 41.773 88.487 40.4275C90.4013 39.3029 91.9715 38.0227 93.1725 36.613C93.6898 37.5971 94.3605 38.5202 95.1881 39.3476C99.5197 43.678 106.488 43.7629 110.924 39.6034L108.144 36.8242L108.142 36.8253Z" fill="#B5B5B5" stroke="#141414" stroke-width="0.5" stroke-miterlimit="10"/>
</g>
<defs>
<clipPath id="clip0_2188_68">
<rect width="111" height="52.3585" fill="white"/>
</clipPath>
</defs>
</svg>
